<?xml version="1.0" encoding="UTF-8" standalone="no"?>
<svg
   xmlns:dc="http://purl.org/dc/elements/1.1/"
   xmlns:cc="http://creativecommons.org/ns#"
   xmlns:rdf="http://www.w3.org/1999/02/22-rdf-syntax-ns#"
   xmlns:svg="http://www.w3.org/2000/svg"
   xmlns="http://www.w3.org/2000/svg"
   xmlns:sodipodi="http://sodipodi.sourceforge.net/DTD/sodipodi-0.dtd"
   xmlns:inkscape="http://www.inkscape.org/namespaces/inkscape"
   sodipodi:docname="Approval Voting.svg"
   inkscape:version="1.0 (4035a4fb49, 2020-05-01)"
   id="svg8"
   version="1.1"
   viewBox="0 0 210 297"
   height="297mm"
   width="210mm">
  <defs
     id="defs2" />
  <sodipodi:namedview
     inkscape:window-maximized="1"
     inkscape:window-y="27"
     inkscape:window-x="40"
     inkscape:window-height="1016"
     inkscape:window-width="1880"
     showgrid="false"
     inkscape:document-rotation="0"
     inkscape:current-layer="layer1"
     inkscape:document-units="mm"
     inkscape:cy="552.9037"
     inkscape:cx="378.38301"
     inkscape:zoom="0.51764067"
     inkscape:pageshadow="2"
     inkscape:pageopacity="0.0"
     borderopacity="1.0"
     bordercolor="#666666"
     pagecolor="#ffffff"
     id="base" />
  <metadata
     id="metadata5">
    <rdf:RDF>
      <cc:Work
         rdf:about="">
        <dc:format>image/svg+xml</dc:format>
        <dc:type
           rdf:resource="http://purl.org/dc/dcmitype/StillImage" />
        <dc:title></dc:title>
      </cc:Work>
    </rdf:RDF>
  </metadata>
  <g
     id="layer1"
     inkscape:groupmode="layer"
     inkscape:label="Layer 1">
    <text
       id="text835"
       y="20.485571"
       x="62.178776"
       style="font-size:7.05556px;line-height:1.25;font-family:sans-serif;-inkscape-font-specification:sans-serif;letter-spacing:0px;stroke-width:0.264583;font-weight:normal;font-style:normal;font-stretch:normal;font-variant:normal;"
       xml:space="preserve"><tspan
         style="stroke-width:0.264583;-inkscape-font-specification:sans-serif;font-family:sans-serif;font-weight:normal;font-style:normal;font-stretch:normal;font-variant:normal;"
         y="20.485571"
         x="62.178776"
         id="tspan833"
         sodipodi:role="line" /></text>
    <text
       id="text839"
       y="18.097466"
       x="59.200447"
       style="font-size:7.05556px;line-height:1.25;font-family:'Airmole Stripe';-inkscape-font-specification:'Airmole Stripe';letter-spacing:0px;stroke-width:0.264583"
       xml:space="preserve"><tspan
         style="stroke-width:0.264583"
         y="18.097466"
         x="59.200447"
         id="tspan837"
         sodipodi:role="line" /></text>
    <text
       id="text843"
       y="12.498664"
       x="66.752525"
       style="font-size:7.05556px;line-height:1.25;font-family:'Airmole Stripe';-inkscape-font-specification:'Airmole Stripe';letter-spacing:0px;stroke-width:0.264583"
       xml:space="preserve"><tspan
         style="font-style:normal;font-variant:normal;font-weight:normal;font-stretch:normal;font-family:'Aachen BT';-inkscape-font-specification:'Aachen BT';stroke-width:0.264583"
         y="12.498664"
         x="66.752525"
         id="tspan841"
         sodipodi:role="line">Representatives Details</tspan></text>
    <text
       id="text856"
       y="46.226013"
       x="159.20009"
       style="font-size:7.05556px;line-height:1.25;font-family:'Airmole Stripe';-inkscape-font-specification:'Airmole Stripe';letter-spacing:0px;stroke-width:0.264583"
       xml:space="preserve"><tspan
         style="stroke-width:0.264583"
         y="46.226013"
         x="159.20009"
         id="tspan854"
         sodipodi:role="line" /></text>
    <text
       id="text860"
       y="41.88887"
       x="149.75372"
       style="font-size:7.05556px;line-height:1.25;font-family:'Airmole Stripe';-inkscape-font-specification:'Airmole Stripe';letter-spacing:0px;stroke-width:0.264583"
       xml:space="preserve"><tspan
         style="stroke-width:0.264583"
         y="41.88887"
         x="149.75372"
         id="tspan858"
         sodipodi:role="line" /><tspan
         id="tspan862"
         style="stroke-width:0.264583"
         y="50.708321"
         x="149.75372"
         sodipodi:role="line" /></text>
    <text
       id="text870"
       y="38.676285"
       x="124.01719"
       style="font-size:7.05556px;line-height:1.25;font-family:Aachen-Bold;-inkscape-font-specification:Aachen-Bold;letter-spacing:0px;stroke-width:0.264583"
       xml:space="preserve"><tspan
         style="stroke-width:0.264583"
         y="38.676285"
         x="124.01719"
         id="tspan868"
         sodipodi:role="line"></tspan></text>
    <text
       xml:space="preserve"
       style="font-size:7.05556px;line-height:1.25;font-family:'Airmole Stripe';-inkscape-font-specification:'Airmole Stripe';letter-spacing:0px;stroke-width:0.264583"
       x="17.777571"
       y="48.72123"
       id="text1076"><tspan
         sodipodi:role="line"
         id="tspan1074"
         x="17.777571"
         y="48.72123"
         style="font-style:normal;font-variant:normal;font-weight:normal;font-stretch:normal;font-family:aakar;-inkscape-font-specification:aakar;stroke-width:0.264583">Sadie Jefferson</tspan></text>
    <text
       xml:space="preserve"
       style="font-size:7.50041px;line-height:1.25;font-family:'Airmole Stripe';-inkscape-font-specification:'Airmole Stripe';letter-spacing:0px;stroke-width:0.281265"
       x="48.275471"
       y="58.832306"
       id="text1080"
       transform="scale(0.94069041,1.063049)"><tspan
         sodipodi:role="line"
         id="tspan1078"
         x="48.275471"
         y="58.832306"
         style="font-style:normal;font-variant:normal;font-weight:normal;font-stretch:normal;font-family:aakar;-inkscape-font-specification:aakar;stroke-width:0.281265">Profile Link</tspan></text>
    <path
       id="path1082"
       font-family="'Bitstream Vera Sans'"
       enable-background="accumulate"
       overflow="visible"
       d="m 145.45132,48.681887 c -0.31142,0 -0.61078,0.19256 -0.81029,0.50436 -0.007,0.0105 -0.0183,0.014 -0.0248,0.0248 l -2.95176,4.05143 c -0.29575,0.41406 -0.44648,0.89566 -0.44648,1.39734 v 2.48873 c 0,1.30849 1.07276,2.38125 2.38125,2.38125 h 5.02708 c 0.40129,0 0.7328,-0.16225 0.95912,-0.38034 0.22631,-0.21808 0.3638,-0.48693 0.3638,-0.76067 0,-0.22596 -0.0527,-0.41238 -0.10749,-0.55397 0.25768,-0.13854 0.63666,-0.40103 0.63666,-1.00046 0,-0.3775 -0.18273,-0.62379 -0.36381,-0.78548 0.18074,-0.1774 0.36381,-0.43893 0.36381,-0.83509 0,-0.59359 -0.37611,-0.83606 -0.59532,-0.95085 0.0231,-0.1363 0.0661,-0.33705 0.0661,-0.57878 0,-0.51823 -0.48838,-1.00481 -1.20716,-1.00872 -0.002,-6e-5 -0.006,6e-5 -0.008,0 -0.82119,-0.0238 -2.80619,-0.0246 -3.29902,-0.0248 0.088,-0.19697 0.15168,-0.33445 0.31419,-0.7028 0.2472,-0.56032 0.50609,-1.1472 0.58704,-1.37253 4.3e-4,-0.001 -3.9e-4,-0.007 0,-0.008 0.0716,-0.18903 0.17364,-0.3762 0.17364,-0.66972 0,-0.40841 -0.15934,-0.72634 -0.37207,-0.92605 -0.21274,-0.19971 -0.46057,-0.28938 -0.68627,-0.28938 z m 0,0.52916 c 0.0653,0 0.21108,0.0443 0.32245,0.14883 0.11138,0.10456 0.20671,0.25793 0.20671,0.53744 0,0.17932 -0.0535,0.25579 -0.14056,0.48782 a 0.26460979,0.26460979 0 0 0 0,0.008 c -0.0527,0.14762 -0.32287,0.77815 -0.5705,1.33945 -0.24764,0.56131 -0.47956,1.07487 -0.47956,1.07487 a 0.26460979,0.26460979 0 0 0 0.23978,0.37207 c 0,0 2.81246,-10e-4 3.69589,0.0248 a 0.26460979,0.26460979 0 0 0 0.008,0 c 0.49351,0 0.68627,0.31198 0.68627,0.47955 0,0.21167 -0.0744,0.66973 -0.0744,0.66973 a 0.26460979,0.26460979 0 0 0 0.17363,0.28939 c 0,0 0.42995,0.13835 0.42995,0.57051 0,0.38763 -0.38861,0.62011 -0.38861,0.62011 a 0.26460979,0.26460979 0 0 0 0.0248,0.47956 c 0,0 0.3638,0.13326 0.3638,0.5209 0,0.43656 -0.5457,0.64492 -0.5457,0.64492 a 0.26460979,0.26460979 0 0 0 -0.12403,0.40514 c 0,0 0.14056,0.18981 0.14056,0.50437 0,0.0702 -0.061,0.24785 -0.19843,0.38034 -0.13749,0.13248 -0.33514,0.23151 -0.59532,0.23151 h -5.02708 c -1.01984,0 -1.85208,-0.83224 -1.85208,-1.85209 v -2.48873 c 0,-0.39541 0.11682,-0.75795 0.34727,-1.08314 0.001,-0.002 -10e-4,-0.006 0,-0.008 l 2.96002,-4.06797 a 0.26460979,0.26460979 0 0 0 0.0165,-0.0248 c 0.11872,-0.19786 0.27892,-0.26459 0.38034,-0.26459 z"
       style="line-height:normal;-inkscape-font-specification:'Bitstream Vera Sans';text-indent:0;text-align:start;text-transform:none;fill:#00ffcc;stroke-width:0.264583" />
    <path
       id="path1084"
       font-family="'Bitstream Vera Sans'"
       enable-background="accumulate"
       overflow="visible"
       d="m 163.21978,49.935932 c -1.3085,0 -2.38127,1.07276 -2.38127,2.38125 v 2.48873 c 0,0.50168 0.15073,0.98328 0.44649,1.39734 l 2.95177,4.05143 c 0.007,0.0108 0.0181,0.0143 0.0248,0.0248 0.19951,0.3118 0.49888,0.50436 0.8103,0.50436 0.22569,0 0.47352,-0.0897 0.68626,-0.28939 0.21273,-0.19971 0.37207,-0.51763 0.37207,-0.92604 0,-0.29692 -0.10356,-0.45949 -0.17363,-0.66973 -0.0796,-0.22278 -0.33859,-0.81761 -0.58705,-1.38079 -0.16251,-0.36835 -0.22614,-0.50583 -0.31419,-0.7028 0.49283,-2.2e-4 2.47783,-9.7e-4 3.29902,-0.0248 0.003,0 0.005,2e-5 0.008,0 0.71878,-0.004 1.20716,-0.49049 1.20716,-1.00872 0,-0.24173 -0.0431,-0.44248 -0.0661,-0.57878 0.21921,-0.11479 0.59532,-0.35726 0.59532,-0.95085 0,-0.39616 -0.18308,-0.65769 -0.36381,-0.83509 0.18108,-0.16169 0.36381,-0.40798 0.36381,-0.78548 0,-0.59943 -0.37898,-0.86192 -0.63666,-1.00046 0.0548,-0.14159 0.10749,-0.32801 0.10749,-0.55397 0,-0.27374 -0.13749,-0.54259 -0.3638,-0.76067 -0.22632,-0.21809 -0.55783,-0.38034 -0.95912,-0.38034 z m 0,0.52916 h 5.02709 c 0.26018,0 0.45783,0.099 0.59532,0.23151 0.13748,0.13249 0.19843,0.31013 0.19843,0.38034 0,0.31456 -0.14056,0.50437 -0.14056,0.50437 a 0.26460979,0.26460979 0 0 0 0.12403,0.40514 c 0,0 0.5457,0.20836 0.5457,0.64492 0,0.38764 -0.3638,0.5209 -0.3638,0.5209 a 0.26460979,0.26460979 0 0 0 -0.0248,0.47956 c 0,0 0.38861,0.23248 0.38861,0.62011 0,0.43216 -0.42995,0.57051 -0.42995,0.57051 a 0.26460979,0.26460979 0 0 0 -0.17363,0.28939 c 0,0 0.0744,0.45806 0.0744,0.66973 0,0.16756 -0.19276,0.47955 -0.68627,0.47955 a 0.26460979,0.26460979 0 0 0 -0.008,0 c -0.88343,0.026 -3.6959,0.0248 -3.6959,0.0248 a 0.26460979,0.26460979 0 0 0 -0.23978,0.37207 c 0,0 0.23192,0.51356 0.47956,1.07487 0.24763,0.5613 0.51779,1.19182 0.57051,1.33945 h -0.008 c 0.0887,0.26601 0.14883,0.31677 0.14883,0.49609 0,0.27951 -0.0953,0.43288 -0.20671,0.53744 -0.11138,0.10456 -0.25712,0.14883 -0.32246,0.14883 -0.10142,0 -0.26163,-0.0667 -0.38034,-0.26459 a 0.26460979,0.26460979 0 0 0 -0.0165,-0.0248 l -2.96004,-4.06797 c -0.002,-0.002 0.001,-0.006 0,-0.008 -0.23045,-0.32519 -0.34727,-0.68773 -0.34727,-1.08314 v -2.48873 c 0,-1.01985 0.83224,-1.85209 1.85209,-1.85209 z"
       style="line-height:normal;-inkscape-font-specification:'Bitstream Vera Sans';text-indent:0;text-align:start;text-transform:none;fill:#00ffcc;stroke-width:0.264583" />
    <text
       xml:space="preserve"
       style="font-size:7.05556px;line-height:1.25;font-family:Aachen-Bold;-inkscape-font-specification:Aachen-Bold;letter-spacing:0px;stroke-width:0.264583"
       x="115.34406"
       y="57.681274"
       id="text1088"><tspan
         sodipodi:role="line"
         id="tspan1086"
         x="115.34406"
         y="57.681274"
         style="font-style:normal;font-variant:normal;font-weight:normal;font-stretch:normal;font-family:'Abyssinica SIL';-inkscape-font-specification:'Abyssinica SIL';stroke-width:0.264583">Upvote</tspan></text>
    <text
       id="text1092"
       y="57.681274"
       x="172.49344"
       style="font-size:7.05556px;line-height:1.25;font-family:Aachen-Bold;-inkscape-font-specification:Aachen-Bold;letter-spacing:0px;stroke-width:0.264583"
       xml:space="preserve"><tspan
         style="font-style:normal;font-variant:normal;font-weight:normal;font-stretch:normal;font-family:'Abyssinica SIL';-inkscape-font-specification:'Abyssinica SIL';stroke-width:0.264583"
         y="57.681274"
         x="172.49344"
         id="tspan1090"
         sodipodi:role="line">Downvote</tspan></text>
    <rect
       ry="6.2079501"
       y="35.543884"
       x="3.2391663"
       height="27.919027"
       width="203.52167"
       id="rect1094"
       style="fill:#ffd5d5;stroke:#faebd7;stroke-width:0.529;stroke-linecap:round;stroke-linejoin:bevel" />
    <text
       id="text1098"
       y="48.72123"
       x="17.777571"
       style="font-size:7.05556px;line-height:1.25;font-family:'Airmole Stripe';-inkscape-font-specification:'Airmole Stripe';letter-spacing:0px;stroke-width:0.264583"
       xml:space="preserve"><tspan
         style="font-style:normal;font-variant:normal;font-weight:normal;font-stretch:normal;font-family:aakar;-inkscape-font-specification:aakar;stroke-width:0.264583"
         y="48.72123"
         x="17.777571"
         id="tspan1096"
         sodipodi:role="line">Sadie Jefferson</tspan></text>
    <text
       transform="scale(0.94069041,1.063049)"
       id="text1102"
       y="58.832306"
       x="48.275471"
       style="font-size:7.50041px;line-height:1.25;font-family:'Airmole Stripe';-inkscape-font-specification:'Airmole Stripe';letter-spacing:0px;stroke-width:0.281265"
       xml:space="preserve"><tspan
         style="font-style:normal;font-variant:normal;font-weight:normal;font-stretch:normal;font-family:aakar;-inkscape-font-specification:aakar;stroke-width:0.281265"
         y="58.832306"
         x="48.275471"
         id="tspan1100"
         sodipodi:role="line">Profile Link</tspan></text>
    <path
       style="line-height:normal;-inkscape-font-specification:'Bitstream Vera Sans';text-indent:0;text-align:start;text-transform:none;fill:#00ffcc;stroke-width:0.264583"
       d="m 193.07662,48.681887 c -0.31142,0 -0.61078,0.19256 -0.81029,0.50436 -0.007,0.0105 -0.0183,0.014 -0.0248,0.0248 l -2.95176,4.05143 c -0.29575,0.41406 -0.44648,0.89566 -0.44648,1.39734 v 2.48873 c 0,1.30849 1.07276,2.38125 2.38125,2.38125 h 5.02708 c 0.40129,0 0.7328,-0.16225 0.95912,-0.38034 0.22631,-0.21808 0.3638,-0.48693 0.3638,-0.76067 0,-0.22596 -0.0527,-0.41238 -0.10749,-0.55397 0.25768,-0.13854 0.63666,-0.40103 0.63666,-1.00046 0,-0.3775 -0.18273,-0.62379 -0.36381,-0.78548 0.18074,-0.1774 0.36381,-0.43893 0.36381,-0.83509 0,-0.59359 -0.37611,-0.83606 -0.59532,-0.95085 0.0231,-0.1363 0.0661,-0.33705 0.0661,-0.57878 0,-0.51823 -0.48838,-1.00481 -1.20716,-1.00872 -0.002,-6e-5 -0.006,6e-5 -0.008,0 -0.82119,-0.0238 -2.80619,-0.0246 -3.29902,-0.0248 0.088,-0.19697 0.15168,-0.33445 0.31419,-0.7028 0.2472,-0.56032 0.50609,-1.1472 0.58704,-1.37253 4.3e-4,-0.001 -3.9e-4,-0.007 0,-0.008 0.0716,-0.18903 0.17364,-0.3762 0.17364,-0.66972 0,-0.40841 -0.15934,-0.72634 -0.37207,-0.92605 -0.21274,-0.19971 -0.46057,-0.28938 -0.68627,-0.28938 z m 0,0.52916 c 0.0653,0 0.21108,0.0443 0.32245,0.14883 0.11138,0.10456 0.20671,0.25793 0.20671,0.53744 0,0.17932 -0.0535,0.25579 -0.14056,0.48782 a 0.26460979,0.26460979 0 0 0 0,0.008 c -0.0527,0.14762 -0.32287,0.77815 -0.5705,1.33945 -0.24764,0.56131 -0.47956,1.07487 -0.47956,1.07487 a 0.26460979,0.26460979 0 0 0 0.23978,0.37207 c 0,0 2.81246,-10e-4 3.69589,0.0248 a 0.26460979,0.26460979 0 0 0 0.008,0 c 0.49351,0 0.68627,0.31198 0.68627,0.47955 0,0.21167 -0.0744,0.66973 -0.0744,0.66973 a 0.26460979,0.26460979 0 0 0 0.17363,0.28939 c 0,0 0.42995,0.13835 0.42995,0.57051 0,0.38763 -0.38861,0.62011 -0.38861,0.62011 a 0.26460979,0.26460979 0 0 0 0.0248,0.47956 c 0,0 0.3638,0.13326 0.3638,0.5209 0,0.43656 -0.5457,0.64492 -0.5457,0.64492 a 0.26460979,0.26460979 0 0 0 -0.12403,0.40514 c 0,0 0.14056,0.18981 0.14056,0.50437 0,0.0702 -0.061,0.24785 -0.19843,0.38034 -0.13749,0.13248 -0.33514,0.23151 -0.59532,0.23151 h -5.02708 c -1.01984,0 -1.85208,-0.83224 -1.85208,-1.85209 v -2.48873 c 0,-0.39541 0.11682,-0.75795 0.34727,-1.08314 0.001,-0.002 -0.001,-0.006 0,-0.008 l 2.96002,-4.06797 a 0.26460979,0.26460979 0 0 0 0.0165,-0.0248 c 0.11872,-0.19786 0.27892,-0.26459 0.38034,-0.26459 z"
       overflow="visible"
       enable-background="accumulate"
       font-family="'Bitstream Vera Sans'"
       id="path1104" />
    <text
       id="text1108"
       y="57.681274"
       x="157.67697"
       style="font-size:7.05556px;line-height:1.25;font-family:Aachen-Bold;-inkscape-font-specification:Aachen-Bold;letter-spacing:0px;stroke-width:0.264583"
       xml:space="preserve"><tspan
         style="font-style:normal;font-variant:normal;font-weight:normal;font-stretch:normal;font-family:'Abyssinica SIL';-inkscape-font-specification:'Abyssinica SIL';stroke-width:0.264583"
         y="57.681274"
         x="157.67697"
         id="tspan1106"
         sodipodi:role="line">Approve</tspan></text>
    <rect
       style="fill:#ffd5d5;stroke:#faebd7;stroke-width:0.529;stroke-linecap:round;stroke-linejoin:bevel"
       id="rect1110"
       width="203.52167"
       height="27.919027"
       x="3.2391663"
       y="69.410583"
       ry="6.2079501" />
    <text
       xml:space="preserve"
       style="font-size:7.05556px;line-height:1.25;font-family:'Airmole Stripe';-inkscape-font-specification:'Airmole Stripe';letter-spacing:0px;stroke-width:0.264583"
       x="17.777571"
       y="82.587921"
       id="text1114"><tspan
         sodipodi:role="line"
         id="tspan1112"
         x="17.777571"
         y="82.587921"
         style="font-style:normal;font-variant:normal;font-weight:normal;font-stretch:normal;font-family:aakar;-inkscape-font-specification:aakar;stroke-width:0.264583">Ruby Griffith</tspan></text>
    <text
       xml:space="preserve"
       style="font-size:7.50041px;line-height:1.25;font-family:'Airmole Stripe';-inkscape-font-specification:'Airmole Stripe';letter-spacing:0px;stroke-width:0.281265"
       x="48.275471"
       y="90.690247"
       id="text1118"
       transform="scale(0.94069041,1.063049)"><tspan
         sodipodi:role="line"
         id="tspan1116"
         x="48.275471"
         y="90.690247"
         style="font-style:normal;font-variant:normal;font-weight:normal;font-stretch:normal;font-family:aakar;-inkscape-font-specification:aakar;stroke-width:0.281265">Profile Link</tspan></text>
    <path
       id="path1120"
       font-family="'Bitstream Vera Sans'"
       enable-background="accumulate"
       overflow="visible"
       d="m 193.07662,82.54858 c -0.31142,0 -0.61078,0.19256 -0.81029,0.50436 -0.007,0.0105 -0.0183,0.014 -0.0248,0.0248 l -2.95176,4.051436 c -0.29575,0.414057 -0.44648,0.895654 -0.44648,1.397341 v 2.488725 c 0,1.308494 1.07276,2.381248 2.38125,2.381248 h 5.02708 c 0.40129,0 0.7328,-0.16225 0.95912,-0.380337 0.22631,-0.21808 0.3638,-0.486927 0.3638,-0.760667 0,-0.225967 -0.0527,-0.412387 -0.10749,-0.553977 0.25768,-0.13854 0.63666,-0.401027 0.63666,-1.000454 0,-0.377497 -0.18273,-0.623787 -0.36381,-0.785484 0.18074,-0.1774 0.36381,-0.43893 0.36381,-0.835087 0,-0.593587 -0.37611,-0.836064 -0.59532,-0.950854 0.0231,-0.1363 0.0661,-0.337047 0.0661,-0.578777 0,-0.518227 -0.48838,-1.004814 -1.20716,-1.008724 -0.002,-6e-5 -0.006,6e-5 -0.008,0 -0.82119,-0.0238 -2.80619,-0.0246 -3.29902,-0.0248 0.088,-0.19697 0.15168,-0.334447 0.31419,-0.702797 0.2472,-0.560317 0.50609,-1.147194 0.58704,-1.372531 4.3e-4,-0.001 -3.9e-4,-0.007 0,-0.008 0.0716,-0.18903 0.17364,-0.376197 0.17364,-0.669717 0,-0.408414 -0.15934,-0.726341 -0.37207,-0.926051 -0.21274,-0.19971 -0.46057,-0.28938 -0.68627,-0.28938 z m 0,0.529167 c 0.0653,0 0.21108,0.0443 0.32245,0.14883 0.11138,0.10456 0.20671,0.25793 0.20671,0.537437 0,0.17932 -0.0535,0.25579 -0.14056,0.487817 a 0.26460979,0.26460979 0 0 0 0,0.008 c -0.0527,0.14762 -0.32287,0.778157 -0.5705,1.339454 -0.24764,0.561307 -0.47956,1.074864 -0.47956,1.074864 a 0.26460979,0.26460979 0 0 0 0.23978,0.372077 c 0,0 2.81246,-0.001 3.69589,0.0248 a 0.26460979,0.26460979 0 0 0 0.008,0 c 0.49351,0 0.68627,0.311977 0.68627,0.479547 0,0.21167 -0.0744,0.669727 -0.0744,0.669727 a 0.26460979,0.26460979 0 0 0 0.17363,0.289397 c 0,0 0.42995,0.13835 0.42995,0.570507 0,0.387627 -0.38861,0.620107 -0.38861,0.620107 a 0.26460979,0.26460979 0 0 0 0.0248,0.479567 c 0,0 0.3638,0.13326 0.3638,0.520897 0,0.436557 -0.5457,0.644917 -0.5457,0.644917 a 0.26460979,0.26460979 0 0 0 -0.12403,0.405137 c 0,0 0.14056,0.18981 0.14056,0.504377 0,0.0702 -0.061,0.24785 -0.19843,0.380337 -0.13749,0.13248 -0.33514,0.23151 -0.59532,0.23151 h -5.02708 c -1.01984,0 -1.85208,-0.832244 -1.85208,-1.852091 v -2.488725 c 0,-0.395417 0.11682,-0.757954 0.34727,-1.083144 0.001,-0.002 -0.001,-0.006 0,-0.008 l 2.96002,-4.067966 a 0.26460979,0.26460979 0 0 0 0.0165,-0.0248 c 0.11872,-0.19786 0.27892,-0.26459 0.38034,-0.26459 z"
       style="line-height:normal;-inkscape-font-specification:'Bitstream Vera Sans';text-indent:0;text-align:start;text-transform:none;fill:#00ffcc;stroke-width:0.264583" />
    <text
       xml:space="preserve"
       style="font-size:7.05556px;line-height:1.25;font-family:Aachen-Bold;-inkscape-font-specification:Aachen-Bold;letter-spacing:0px;stroke-width:0.264583"
       x="157.67697"
       y="91.547958"
       id="text1124"><tspan
         sodipodi:role="line"
         id="tspan1122"
         x="157.67697"
         y="91.547958"
         style="font-style:normal;font-variant:normal;font-weight:normal;font-stretch:normal;font-family:'Abyssinica SIL';-inkscape-font-specification:'Abyssinica SIL';stroke-width:0.264583">Approve</tspan></text>
    <rect
       ry="6.2079501"
       y="105.92313"
       x="3.2391663"
       height="27.919027"
       width="203.52167"
       id="rect1126"
       style="fill:#ffd5d5;stroke:#faebd7;stroke-width:0.529;stroke-linecap:round;stroke-linejoin:bevel" />
    <text
       id="text1130"
       y="119.10043"
       x="17.777571"
       style="font-size:7.05556px;line-height:1.25;font-family:'Airmole Stripe';-inkscape-font-specification:'Airmole Stripe';letter-spacing:0px;stroke-width:0.264583"
       xml:space="preserve"><tspan
         style="font-style:normal;font-variant:normal;font-weight:normal;font-stretch:normal;font-family:aakar;-inkscape-font-specification:aakar;stroke-width:0.264583"
         y="119.10043"
         x="17.777571"
         id="tspan1128"
         sodipodi:role="line">Johnathan Morris</tspan><tspan
         id="tspan1216"
         style="font-style:normal;font-variant:normal;font-weight:normal;font-stretch:normal;font-family:aakar;-inkscape-font-specification:aakar;stroke-width:0.264583"
         y="128.33047"
         x="17.777571"
         sodipodi:role="line" /></text>
    <text
       transform="scale(0.94069041,1.063049)"
       id="text1134"
       y="125.03711"
       x="48.275471"
       style="font-size:7.50041px;line-height:1.25;font-family:'Airmole Stripe';-inkscape-font-specification:'Airmole Stripe';letter-spacing:0px;stroke-width:0.281265"
       xml:space="preserve"><tspan
         style="font-style:normal;font-variant:normal;font-weight:normal;font-stretch:normal;font-family:aakar;-inkscape-font-specification:aakar;stroke-width:0.281265"
         y="125.03711"
         x="48.275471"
         id="tspan1132"
         sodipodi:role="line">Profile Link</tspan></text>
    <path
       style="line-height:normal;-inkscape-font-specification:'Bitstream Vera Sans';text-indent:0;text-align:start;text-transform:none;fill:#00ffcc;stroke-width:0.264583"
       d="m 193.07662,119.06122 c -0.31142,0 -0.61078,0.19256 -0.81029,0.50436 -0.007,0.0105 -0.0183,0.014 -0.0248,0.0248 l -2.95176,4.05145 c -0.29575,0.41406 -0.44648,0.89566 -0.44648,1.39735 v 2.48874 c 0,1.3085 1.07276,2.38126 2.38125,2.38126 h 5.02708 c 0.40129,0 0.7328,-0.16225 0.95912,-0.38034 0.22631,-0.21808 0.3638,-0.48693 0.3638,-0.76067 0,-0.22597 -0.0527,-0.41239 -0.10749,-0.55398 0.25768,-0.13854 0.63666,-0.40103 0.63666,-1.00046 0,-0.3775 -0.18273,-0.62379 -0.36381,-0.78549 0.18074,-0.1774 0.36381,-0.43893 0.36381,-0.83509 0,-0.59359 -0.37611,-0.83607 -0.59532,-0.95086 0.0231,-0.1363 0.0661,-0.33705 0.0661,-0.57878 0,-0.51823 -0.48838,-1.00482 -1.20716,-1.00873 -0.002,-6e-5 -0.006,6e-5 -0.008,0 -0.82119,-0.0238 -2.80619,-0.0246 -3.29902,-0.0248 0.088,-0.19697 0.15168,-0.33445 0.31419,-0.7028 0.2472,-0.56032 0.50609,-1.1472 0.58704,-1.37254 4.3e-4,-0.001 -3.9e-4,-0.007 0,-0.008 0.0716,-0.18903 0.17364,-0.3762 0.17364,-0.66972 0,-0.40841 -0.15934,-0.72634 -0.37207,-0.92605 -0.21274,-0.19971 -0.46057,-0.28938 -0.68627,-0.28938 z m 0,0.52917 c 0.0653,0 0.21108,0.0443 0.32245,0.14883 0.11138,0.10456 0.20671,0.25793 0.20671,0.53744 0,0.17932 -0.0535,0.25579 -0.14056,0.48782 a 0.26460979,0.26460979 0 0 0 0,0.008 c -0.0527,0.14762 -0.32287,0.77816 -0.5705,1.33946 -0.24764,0.56131 -0.47956,1.07487 -0.47956,1.07487 a 0.26460979,0.26460979 0 0 0 0.23978,0.37208 c 0,0 2.81246,-0.001 3.69589,0.0248 a 0.26460979,0.26460979 0 0 0 0.008,0 c 0.49351,0 0.68627,0.31198 0.68627,0.47955 0,0.21167 -0.0744,0.66973 -0.0744,0.66973 a 0.26460979,0.26460979 0 0 0 0.17363,0.2894 c 0,0 0.42995,0.13835 0.42995,0.57051 0,0.38763 -0.38861,0.62011 -0.38861,0.62011 a 0.26460979,0.26460979 0 0 0 0.0248,0.47957 c 0,0 0.3638,0.13326 0.3638,0.5209 0,0.43656 -0.5457,0.64492 -0.5457,0.64492 a 0.26460979,0.26460979 0 0 0 -0.12403,0.40514 c 0,0 0.14056,0.18981 0.14056,0.50438 0,0.0702 -0.061,0.24785 -0.19843,0.38034 -0.13749,0.13248 -0.33514,0.23151 -0.59532,0.23151 h -5.02708 c -1.01984,0 -1.85208,-0.83225 -1.85208,-1.8521 v -2.48874 c 0,-0.39542 0.11682,-0.75796 0.34727,-1.08315 0.001,-0.002 -0.001,-0.006 0,-0.008 l 2.96002,-4.06799 a 0.26460979,0.26460979 0 0 0 0.0165,-0.0248 c 0.11872,-0.19786 0.27892,-0.26459 0.38034,-0.26459 z"
       overflow="visible"
       enable-background="accumulate"
       font-family="'Bitstream Vera Sans'"
       id="path1136" />
    <text
       id="text1140"
       y="128.06042"
       x="157.67697"
       style="font-size:7.05556px;line-height:1.25;font-family:Aachen-Bold;-inkscape-font-specification:Aachen-Bold;letter-spacing:0px;stroke-width:0.264583"
       xml:space="preserve"><tspan
         style="font-style:normal;font-variant:normal;font-weight:normal;font-stretch:normal;font-family:'Abyssinica SIL';-inkscape-font-specification:'Abyssinica SIL';stroke-width:0.264583"
         y="128.06042"
         x="157.67697"
         id="tspan1138"
         sodipodi:role="line">Approve</tspan></text>
    <rect
       style="fill:#ffd5d5;stroke:#faebd7;stroke-width:0.529;stroke-linecap:round;stroke-linejoin:bevel"
       id="rect1142"
       width="203.52167"
       height="27.919027"
       x="3.2391663"
       y="138.73128"
       ry="6.2079501" />
    <text
       xml:space="preserve"
       style="font-size:7.05556px;line-height:1.25;font-family:'Airmole Stripe';-inkscape-font-specification:'Airmole Stripe';letter-spacing:0px;stroke-width:0.264583"
       x="17.777571"
       y="151.90842"
       id="text1146"><tspan
         sodipodi:role="line"
         id="tspan1144"
         x="17.777571"
         y="151.90842"
         style="font-style:normal;font-variant:normal;font-weight:normal;font-stretch:normal;font-family:aakar;-inkscape-font-specification:aakar;stroke-width:0.264583">Ricky Spencer</tspan></text>
    <text
       xml:space="preserve"
       style="font-size:7.50041px;line-height:1.25;font-family:'Airmole Stripe';-inkscape-font-specification:'Airmole Stripe';letter-spacing:0px;stroke-width:0.281265"
       x="48.275471"
       y="155.89989"
       id="text1150"
       transform="scale(0.94069041,1.063049)"><tspan
         sodipodi:role="line"
         id="tspan1148"
         x="48.275471"
         y="155.89989"
         style="font-style:normal;font-variant:normal;font-weight:normal;font-stretch:normal;font-family:aakar;-inkscape-font-specification:aakar;stroke-width:0.281265">Profile Link</tspan></text>
    <path
       id="path1152"
       font-family="'Bitstream Vera Sans'"
       enable-background="accumulate"
       overflow="visible"
       d="m 193.07662,151.86976 c -0.31142,0 -0.61078,0.19256 -0.81029,0.50436 -0.007,0.0105 -0.0183,0.014 -0.0248,0.0248 l -2.95176,4.05145 c -0.29575,0.41406 -0.44648,0.89566 -0.44648,1.39735 v 2.48874 c 0,1.3085 1.07276,2.38126 2.38125,2.38126 h 5.02708 c 0.40129,0 0.7328,-0.16225 0.95912,-0.38034 0.22631,-0.21808 0.3638,-0.48693 0.3638,-0.76067 0,-0.22597 -0.0527,-0.41239 -0.10749,-0.55398 0.25768,-0.13854 0.63666,-0.40103 0.63666,-1.00046 0,-0.3775 -0.18273,-0.62379 -0.36381,-0.78549 0.18074,-0.1774 0.36381,-0.43893 0.36381,-0.83509 0,-0.59359 -0.37611,-0.83607 -0.59532,-0.95086 0.0231,-0.1363 0.0661,-0.33705 0.0661,-0.57878 0,-0.51823 -0.48838,-1.00482 -1.20716,-1.00873 -0.002,-6e-5 -0.006,6e-5 -0.008,0 -0.82119,-0.0238 -2.80619,-0.0246 -3.29902,-0.0248 0.088,-0.19697 0.15168,-0.33445 0.31419,-0.7028 0.2472,-0.56032 0.50609,-1.1472 0.58704,-1.37254 4.3e-4,-0.001 -3.9e-4,-0.007 0,-0.008 0.0716,-0.18903 0.17364,-0.3762 0.17364,-0.66972 0,-0.40841 -0.15934,-0.72634 -0.37207,-0.92605 -0.21274,-0.19971 -0.46057,-0.28938 -0.68627,-0.28938 z m 0,0.52917 c 0.0653,0 0.21108,0.0443 0.32245,0.14883 0.11138,0.10456 0.20671,0.25793 0.20671,0.53744 0,0.17932 -0.0535,0.25579 -0.14056,0.48782 a 0.26460979,0.26460979 0 0 0 0,0.008 c -0.0527,0.14762 -0.32287,0.77816 -0.5705,1.33946 -0.24764,0.56131 -0.47956,1.07487 -0.47956,1.07487 a 0.26460979,0.26460979 0 0 0 0.23978,0.37208 c 0,0 2.81246,-0.001 3.69589,0.0248 a 0.26460979,0.26460979 0 0 0 0.008,0 c 0.49351,0 0.68627,0.31198 0.68627,0.47955 0,0.21167 -0.0744,0.66973 -0.0744,0.66973 a 0.26460979,0.26460979 0 0 0 0.17363,0.2894 c 0,0 0.42995,0.13835 0.42995,0.57051 0,0.38763 -0.38861,0.62011 -0.38861,0.62011 a 0.26460979,0.26460979 0 0 0 0.0248,0.47957 c 0,0 0.3638,0.13326 0.3638,0.5209 0,0.43656 -0.5457,0.64492 -0.5457,0.64492 a 0.26460979,0.26460979 0 0 0 -0.12403,0.40514 c 0,0 0.14056,0.18981 0.14056,0.50438 0,0.0702 -0.061,0.24785 -0.19843,0.38034 -0.13749,0.13248 -0.33514,0.23151 -0.59532,0.23151 h -5.02708 c -1.01984,0 -1.85208,-0.83225 -1.85208,-1.8521 v -2.48874 c 0,-0.39542 0.11682,-0.75796 0.34727,-1.08315 0.001,-0.002 -0.001,-0.006 0,-0.008 l 2.96002,-4.06799 a 0.26460979,0.26460979 0 0 0 0.0165,-0.0248 c 0.11872,-0.19786 0.27892,-0.26459 0.38034,-0.26459 z"
       style="line-height:normal;-inkscape-font-specification:'Bitstream Vera Sans';text-indent:0;text-align:start;text-transform:none;fill:#00ffcc;stroke-width:0.264583" />
    <text
       xml:space="preserve"
       style="font-size:7.05556px;line-height:1.25;font-family:Aachen-Bold;-inkscape-font-specification:Aachen-Bold;letter-spacing:0px;stroke-width:0.264583"
       x="157.67697"
       y="160.86832"
       id="text1156"><tspan
         sodipodi:role="line"
         id="tspan1154"
         x="157.67697"
         y="160.86832"
         style="font-style:normal;font-variant:normal;font-weight:normal;font-stretch:normal;font-family:'Abyssinica SIL';-inkscape-font-specification:'Abyssinica SIL';stroke-width:0.264583">Approve</tspan></text>
    <rect
       ry="6.2079501"
       y="172.59749"
       x="3.2391663"
       height="27.919027"
       width="203.52167"
       id="rect1158"
       style="fill:#ffd5d5;stroke:#faebd7;stroke-width:0.529;stroke-linecap:round;stroke-linejoin:bevel" />
    <text
       id="text1162"
       y="185.77463"
       x="17.777571"
       style="font-size:7.05556px;line-height:1.25;font-family:'Airmole Stripe';-inkscape-font-specification:'Airmole Stripe';letter-spacing:0px;stroke-width:0.264583"
       xml:space="preserve"><tspan
         style="font-style:normal;font-variant:normal;font-weight:normal;font-stretch:normal;font-family:aakar;-inkscape-font-specification:aakar;stroke-width:0.264583"
         y="185.77463"
         x="17.777571"
         id="tspan1160"
         sodipodi:role="line">Antoinette Bush</tspan><tspan
         id="tspan1218"
         style="font-style:normal;font-variant:normal;font-weight:normal;font-stretch:normal;font-family:aakar;-inkscape-font-specification:aakar;stroke-width:0.264583"
         y="195.00467"
         x="17.777571"
         sodipodi:role="line" /></text>
    <text
       transform="scale(0.94069041,1.063049)"
       id="text1166"
       y="187.75829"
       x="48.275471"
       style="font-size:7.50041px;line-height:1.25;font-family:'Airmole Stripe';-inkscape-font-specification:'Airmole Stripe';letter-spacing:0px;stroke-width:0.281265"
       xml:space="preserve"><tspan
         style="font-style:normal;font-variant:normal;font-weight:normal;font-stretch:normal;font-family:aakar;-inkscape-font-specification:aakar;stroke-width:0.281265"
         y="187.75829"
         x="48.275471"
         id="tspan1164"
         sodipodi:role="line">Profile Link</tspan></text>
    <path
       style="line-height:normal;-inkscape-font-specification:'Bitstream Vera Sans';text-indent:0;text-align:start;text-transform:none;fill:#00ffcc;stroke-width:0.264583"
       d="m 193.07662,185.73664 c -0.31142,0 -0.61078,0.19256 -0.81029,0.50436 -0.007,0.0105 -0.0183,0.014 -0.0248,0.0248 l -2.95176,4.05145 c -0.29575,0.41406 -0.44648,0.89566 -0.44648,1.39735 v 2.48874 c 0,1.3085 1.07276,2.38126 2.38125,2.38126 h 5.02708 c 0.40129,0 0.7328,-0.16225 0.95912,-0.38034 0.22631,-0.21808 0.3638,-0.48693 0.3638,-0.76067 0,-0.22597 -0.0527,-0.41239 -0.10749,-0.55398 0.25768,-0.13854 0.63666,-0.40103 0.63666,-1.00046 0,-0.3775 -0.18273,-0.62379 -0.36381,-0.78549 0.18074,-0.1774 0.36381,-0.43893 0.36381,-0.83509 0,-0.59359 -0.37611,-0.83607 -0.59532,-0.95086 0.0231,-0.1363 0.0661,-0.33705 0.0661,-0.57878 0,-0.51823 -0.48838,-1.00482 -1.20716,-1.00873 -0.002,-6e-5 -0.006,6e-5 -0.008,0 -0.82119,-0.0238 -2.80619,-0.0246 -3.29902,-0.0248 0.088,-0.19697 0.15168,-0.33445 0.31419,-0.7028 0.2472,-0.56032 0.50609,-1.1472 0.58704,-1.37254 4.3e-4,-10e-4 -3.9e-4,-0.007 0,-0.008 0.0716,-0.18903 0.17364,-0.3762 0.17364,-0.66972 0,-0.40841 -0.15934,-0.72634 -0.37207,-0.92605 -0.21274,-0.19971 -0.46057,-0.28938 -0.68627,-0.28938 z m 0,0.52917 c 0.0653,0 0.21108,0.0443 0.32245,0.14883 0.11138,0.10456 0.20671,0.25793 0.20671,0.53744 0,0.17932 -0.0535,0.25579 -0.14056,0.48782 a 0.26460979,0.26460979 0 0 0 0,0.008 c -0.0527,0.14762 -0.32287,0.77816 -0.5705,1.33946 -0.24764,0.56131 -0.47956,1.07487 -0.47956,1.07487 a 0.26460979,0.26460979 0 0 0 0.23978,0.37208 c 0,0 2.81246,-0.001 3.69589,0.0248 a 0.26460979,0.26460979 0 0 0 0.008,0 c 0.49351,0 0.68627,0.31198 0.68627,0.47955 0,0.21167 -0.0744,0.66973 -0.0744,0.66973 a 0.26460979,0.26460979 0 0 0 0.17363,0.2894 c 0,0 0.42995,0.13835 0.42995,0.57051 0,0.38763 -0.38861,0.62011 -0.38861,0.62011 a 0.26460979,0.26460979 0 0 0 0.0248,0.47957 c 0,0 0.3638,0.13326 0.3638,0.5209 0,0.43656 -0.5457,0.64492 -0.5457,0.64492 a 0.26460979,0.26460979 0 0 0 -0.12403,0.40514 c 0,0 0.14056,0.18981 0.14056,0.50438 0,0.0702 -0.061,0.24785 -0.19843,0.38034 -0.13749,0.13248 -0.33514,0.23151 -0.59532,0.23151 h -5.02708 c -1.01984,0 -1.85208,-0.83225 -1.85208,-1.8521 v -2.48874 c 0,-0.39542 0.11682,-0.75796 0.34727,-1.08315 0.001,-0.002 -0.001,-0.006 0,-0.008 l 2.96002,-4.06799 a 0.26460979,0.26460979 0 0 0 0.0165,-0.0248 c 0.11872,-0.19786 0.27892,-0.26459 0.38034,-0.26459 z"
       overflow="visible"
       enable-background="accumulate"
       font-family="'Bitstream Vera Sans'"
       id="path1168" />
    <text
       id="text1172"
       y="194.73453"
       x="157.67697"
       style="font-size:7.05556px;line-height:1.25;font-family:Aachen-Bold;-inkscape-font-specification:Aachen-Bold;letter-spacing:0px;stroke-width:0.264583"
       xml:space="preserve"><tspan
         style="font-style:normal;font-variant:normal;font-weight:normal;font-stretch:normal;font-family:'Abyssinica SIL';-inkscape-font-specification:'Abyssinica SIL';stroke-width:0.264583"
         y="194.73453"
         x="157.67697"
         id="tspan1170"
         sodipodi:role="line">Approve</tspan></text>
    <rect
       style="fill:#ffd5d5;stroke:#faebd7;stroke-width:0.529;stroke-linecap:round;stroke-linejoin:bevel"
       id="rect1174"
       width="203.52167"
       height="27.919027"
       x="3.2391663"
       y="206.99286"
       ry="6.2079501" />
    <text
       xml:space="preserve"
       style="font-size:7.05556px;line-height:1.25;font-family:'Airmole Stripe';-inkscape-font-specification:'Airmole Stripe';letter-spacing:0px;stroke-width:0.264583"
       x="17.777571"
       y="220.17"
       id="text1178"><tspan
         sodipodi:role="line"
         id="tspan1176"
         x="17.777571"
         y="220.17"
         style="font-style:normal;font-variant:normal;font-weight:normal;font-stretch:normal;font-family:aakar;-inkscape-font-specification:aakar;stroke-width:0.264583">Eleanor Rodgers</tspan></text>
    <text
       xml:space="preserve"
       style="font-size:7.50041px;line-height:1.25;font-family:'Airmole Stripe';-inkscape-font-specification:'Airmole Stripe';letter-spacing:0px;stroke-width:0.281265"
       x="48.275471"
       y="220.11447"
       id="text1182"
       transform="scale(0.94069041,1.063049)"><tspan
         sodipodi:role="line"
         id="tspan1180"
         x="48.275471"
         y="220.11447"
         style="font-style:normal;font-variant:normal;font-weight:normal;font-stretch:normal;font-family:aakar;-inkscape-font-specification:aakar;stroke-width:0.281265">Profile Link</tspan></text>
    <path
       id="path1184"
       font-family="'Bitstream Vera Sans'"
       enable-background="accumulate"
       overflow="visible"
       d="m 193.07662,220.13269 c -0.31142,0 -0.61078,0.19256 -0.81029,0.50436 -0.007,0.0105 -0.0183,0.014 -0.0248,0.0248 l -2.95176,4.05145 c -0.29575,0.41406 -0.44648,0.89566 -0.44648,1.39735 v 2.48874 c 0,1.3085 1.07276,2.38126 2.38125,2.38126 h 5.02708 c 0.40129,0 0.7328,-0.16225 0.95912,-0.38034 0.22631,-0.21808 0.3638,-0.48693 0.3638,-0.76067 0,-0.22597 -0.0527,-0.41239 -0.10749,-0.55398 0.25768,-0.13854 0.63666,-0.40103 0.63666,-1.00046 0,-0.3775 -0.18273,-0.62379 -0.36381,-0.78549 0.18074,-0.1774 0.36381,-0.43893 0.36381,-0.83509 0,-0.59359 -0.37611,-0.83607 -0.59532,-0.95086 0.0231,-0.1363 0.0661,-0.33705 0.0661,-0.57878 0,-0.51823 -0.48838,-1.00482 -1.20716,-1.00873 -0.002,-6e-5 -0.006,6e-5 -0.008,0 -0.82119,-0.0238 -2.80619,-0.0246 -3.29902,-0.0248 0.088,-0.19697 0.15168,-0.33445 0.31419,-0.7028 0.2472,-0.56032 0.50609,-1.1472 0.58704,-1.37254 4.3e-4,-10e-4 -3.9e-4,-0.007 0,-0.008 0.0716,-0.18903 0.17364,-0.3762 0.17364,-0.66972 0,-0.40841 -0.15934,-0.72634 -0.37207,-0.92605 -0.21274,-0.19971 -0.46057,-0.28938 -0.68627,-0.28938 z m 0,0.52917 c 0.0653,0 0.21108,0.0443 0.32245,0.14883 0.11138,0.10456 0.20671,0.25793 0.20671,0.53744 0,0.17932 -0.0535,0.25579 -0.14056,0.48782 a 0.26460979,0.26460979 0 0 0 0,0.008 c -0.0527,0.14762 -0.32287,0.77816 -0.5705,1.33946 -0.24764,0.56131 -0.47956,1.07487 -0.47956,1.07487 a 0.26460979,0.26460979 0 0 0 0.23978,0.37208 c 0,0 2.81246,-0.001 3.69589,0.0248 a 0.26460979,0.26460979 0 0 0 0.008,0 c 0.49351,0 0.68627,0.31198 0.68627,0.47955 0,0.21167 -0.0744,0.66973 -0.0744,0.66973 a 0.26460979,0.26460979 0 0 0 0.17363,0.2894 c 0,0 0.42995,0.13835 0.42995,0.57051 0,0.38763 -0.38861,0.62011 -0.38861,0.62011 a 0.26460979,0.26460979 0 0 0 0.0248,0.47957 c 0,0 0.3638,0.13326 0.3638,0.5209 0,0.43656 -0.5457,0.64492 -0.5457,0.64492 a 0.26460979,0.26460979 0 0 0 -0.12403,0.40514 c 0,0 0.14056,0.18981 0.14056,0.50438 0,0.0702 -0.061,0.24785 -0.19843,0.38034 -0.13749,0.13248 -0.33514,0.23151 -0.59532,0.23151 h -5.02708 c -1.01984,0 -1.85208,-0.83225 -1.85208,-1.8521 v -2.48874 c 0,-0.39542 0.11682,-0.75796 0.34727,-1.08315 0.001,-0.002 -0.001,-0.006 0,-0.008 l 2.96002,-4.06799 a 0.26460979,0.26460979 0 0 0 0.0165,-0.0248 c 0.11872,-0.19786 0.27892,-0.26459 0.38034,-0.26459 z"
       style="line-height:normal;-inkscape-font-specification:'Bitstream Vera Sans';text-indent:0;text-align:start;text-transform:none;fill:#00ffcc;stroke-width:0.264583" />
    <text
       xml:space="preserve"
       style="font-size:7.05556px;line-height:1.25;font-family:Aachen-Bold;-inkscape-font-specification:Aachen-Bold;letter-spacing:0px;stroke-width:0.264583"
       x="157.67697"
       y="229.1299"
       id="text1188"><tspan
         sodipodi:role="line"
         id="tspan1186"
         x="157.67697"
         y="229.1299"
         style="font-style:normal;font-variant:normal;font-weight:normal;font-stretch:normal;font-family:'Abyssinica SIL';-inkscape-font-specification:'Abyssinica SIL';stroke-width:0.264583">Approve</tspan></text>
    <rect
       ry="6.2079501"
       y="240.32997"
       x="3.2391663"
       height="27.919027"
       width="203.52167"
       id="rect1190"
       style="fill:#ffd5d5;stroke:#faebd7;stroke-width:0.529;stroke-linecap:round;stroke-linejoin:bevel" />
    <text
       id="text1194"
       y="253.50716"
       x="17.777571"
       style="font-size:7.05556px;line-height:1.25;font-family:'Airmole Stripe';-inkscape-font-specification:'Airmole Stripe';letter-spacing:0px;stroke-width:0.264583"
       xml:space="preserve"><tspan
         style="font-style:normal;font-variant:normal;font-weight:normal;font-stretch:normal;font-family:aakar;-inkscape-font-specification:aakar;stroke-width:0.264583"
         y="253.50716"
         x="17.777571"
         id="tspan1192"
         sodipodi:role="line">Brent Walton</tspan></text>
    <text
       transform="scale(0.94069041,1.063049)"
       id="text1198"
       y="251.47501"
       x="48.275471"
       style="font-size:7.50041px;line-height:1.25;font-family:'Airmole Stripe';-inkscape-font-specification:'Airmole Stripe';letter-spacing:0px;stroke-width:0.281265"
       xml:space="preserve"><tspan
         style="font-style:normal;font-variant:normal;font-weight:normal;font-stretch:normal;font-family:aakar;-inkscape-font-specification:aakar;stroke-width:0.281265"
         y="251.47501"
         x="48.275471"
         id="tspan1196"
         sodipodi:role="line">Profile Link</tspan></text>
    <path
       style="line-height:normal;-inkscape-font-specification:'Bitstream Vera Sans';text-indent:0;text-align:start;text-transform:none;fill:#00ffcc;stroke-width:0.264583"
       d="m 193.07662,253.4704 c -0.31142,0 -0.61078,0.19256 -0.81029,0.50436 -0.007,0.0105 -0.0183,0.014 -0.0248,0.0248 l -2.95176,4.05145 c -0.29575,0.41406 -0.44648,0.89566 -0.44648,1.39735 v 2.48874 c 0,1.3085 1.07276,2.38126 2.38125,2.38126 h 5.02708 c 0.40129,0 0.7328,-0.16225 0.95912,-0.38034 0.22631,-0.21808 0.3638,-0.48693 0.3638,-0.76067 0,-0.22597 -0.0527,-0.41239 -0.10749,-0.55398 0.25768,-0.13854 0.63666,-0.40103 0.63666,-1.00046 0,-0.3775 -0.18273,-0.62379 -0.36381,-0.78549 0.18074,-0.1774 0.36381,-0.43893 0.36381,-0.83509 0,-0.59359 -0.37611,-0.83607 -0.59532,-0.95086 0.0231,-0.1363 0.0661,-0.33705 0.0661,-0.57878 0,-0.51823 -0.48838,-1.00482 -1.20716,-1.00873 -0.002,-6e-5 -0.006,6e-5 -0.008,0 -0.82119,-0.0238 -2.80619,-0.0246 -3.29902,-0.0248 0.088,-0.19697 0.15168,-0.33445 0.31419,-0.7028 0.2472,-0.56032 0.50609,-1.1472 0.58704,-1.37254 4.3e-4,-0.001 -3.9e-4,-0.007 0,-0.008 0.0716,-0.18903 0.17364,-0.3762 0.17364,-0.66972 0,-0.40841 -0.15934,-0.72634 -0.37207,-0.92605 -0.21274,-0.19971 -0.46057,-0.28938 -0.68627,-0.28938 z m 0,0.52917 c 0.0653,0 0.21108,0.0443 0.32245,0.14883 0.11138,0.10456 0.20671,0.25793 0.20671,0.53744 0,0.17932 -0.0535,0.25579 -0.14056,0.48782 a 0.26460979,0.26460979 0 0 0 0,0.008 c -0.0527,0.14762 -0.32287,0.77816 -0.5705,1.33946 -0.24764,0.56131 -0.47956,1.07487 -0.47956,1.07487 a 0.26460979,0.26460979 0 0 0 0.23978,0.37208 c 0,0 2.81246,-0.001 3.69589,0.0248 a 0.26460979,0.26460979 0 0 0 0.008,0 c 0.49351,0 0.68627,0.31198 0.68627,0.47955 0,0.21167 -0.0744,0.66973 -0.0744,0.66973 a 0.26460979,0.26460979 0 0 0 0.17363,0.2894 c 0,0 0.42995,0.13835 0.42995,0.57051 0,0.38763 -0.38861,0.62011 -0.38861,0.62011 a 0.26460979,0.26460979 0 0 0 0.0248,0.47957 c 0,0 0.3638,0.13326 0.3638,0.5209 0,0.43656 -0.5457,0.64492 -0.5457,0.64492 a 0.26460979,0.26460979 0 0 0 -0.12403,0.40514 c 0,0 0.14056,0.18981 0.14056,0.50438 0,0.0702 -0.061,0.24785 -0.19843,0.38034 -0.13749,0.13248 -0.33514,0.23151 -0.59532,0.23151 h -5.02708 c -1.01984,0 -1.85208,-0.83225 -1.85208,-1.8521 v -2.48874 c 0,-0.39542 0.11682,-0.75796 0.34727,-1.08315 0.001,-0.002 -0.001,-0.006 0,-0.008 l 2.96002,-4.06799 a 0.26460979,0.26460979 0 0 0 0.0165,-0.0248 c 0.11872,-0.19786 0.27892,-0.26459 0.38034,-0.26459 z"
       overflow="visible"
       enable-background="accumulate"
       font-family="'Bitstream Vera Sans'"
       id="path1200" />
    <text
       id="text1204"
       y="262.46722"
       x="157.67697"
       style="font-size:7.05556px;line-height:1.25;font-family:Aachen-Bold;-inkscape-font-specification:Aachen-Bold;letter-spacing:0px;stroke-width:0.264583"
       xml:space="preserve"><tspan
         style="font-style:normal;font-variant:normal;font-weight:normal;font-stretch:normal;font-family:'Abyssinica SIL';-inkscape-font-specification:'Abyssinica SIL';stroke-width:0.264583"
         y="262.46722"
         x="157.67697"
         id="tspan1202"
         sodipodi:role="line">Approve</tspan></text>
    <rect
       ry="6.2079453"
       y="20.144089"
       x="155.9821"
       height="12.488696"
       width="33.626507"
       id="rect1210"
       style="fill:#ffff00;stroke:#faebd7;stroke-width:0.529;stroke-linecap:round;stroke-linejoin:bevel" />
    <text
       id="text1208"
       y="29.479601"
       x="159.04788"
       style="font-size:7.05556px;line-height:1.25;font-family:Aachen-Bold;-inkscape-font-specification:Aachen-Bold;letter-spacing:0px;stroke-width:0.264583"
       xml:space="preserve"><tspan
         style="font-style:normal;font-variant:normal;font-weight:normal;font-stretch:normal;font-family:aakar;-inkscape-font-specification:aakar;stroke-width:0.264583"
         y="29.479601"
         x="159.04788"
         id="tspan1206"
         sodipodi:role="line">Search</tspan></text>
    <text
       id="text1214"
       y="24.268919"
       x="72.106209"
       style="font-size:7.05556px;line-height:1.25;font-family:Aachen-Bold;-inkscape-font-specification:Aachen-Bold;letter-spacing:0px;stroke-width:0.264583"
       xml:space="preserve"><tspan
         style="font-style:normal;font-variant:normal;font-weight:normal;font-stretch:normal;font-family:aakar;-inkscape-font-specification:aakar;stroke-width:0.264583"
         y="24.268919"
         x="72.106209"
         id="tspan1212"
         sodipodi:role="line">Department: Education</tspan></text>
  </g>
</svg>
