<?xml version="1.0" encoding="UTF-8" standalone="no"?>
<svg
   xmlns:dc="http://purl.org/dc/elements/1.1/"
   xmlns:cc="http://creativecommons.org/ns#"
   xmlns:rdf="http://www.w3.org/1999/02/22-rdf-syntax-ns#"
   xmlns:svg="http://www.w3.org/2000/svg"
   xmlns="http://www.w3.org/2000/svg"
   xmlns:sodipodi="http://sodipodi.sourceforge.net/DTD/sodipodi-0.dtd"
   xmlns:inkscape="http://www.inkscape.org/namespaces/inkscape"
   sodipodi:docname="Winners.svg"
   inkscape:version="1.0 (4035a4fb49, 2020-05-01)"
   id="svg8"
   version="1.1"
   viewBox="0 0 210 297"
   height="297mm"
   width="210mm">
  <defs
     id="defs2" />
  <sodipodi:namedview
     inkscape:window-maximized="1"
     inkscape:window-y="27"
     inkscape:window-x="40"
     inkscape:window-height="1016"
     inkscape:window-width="1880"
     showgrid="false"
     inkscape:document-rotation="0"
     inkscape:current-layer="layer1"
     inkscape:document-units="mm"
     inkscape:cy="552.9037"
     inkscape:cx="378.38301"
     inkscape:zoom="0.51764067"
     inkscape:pageshadow="2"
     inkscape:pageopacity="0.0"
     borderopacity="1.0"
     bordercolor="#666666"
     pagecolor="#ffffff"
     id="base" />
  <metadata
     id="metadata5">
    <rdf:RDF>
      <cc:Work
         rdf:about="">
        <dc:format>image/svg+xml</dc:format>
        <dc:type
           rdf:resource="http://purl.org/dc/dcmitype/StillImage" />
        <dc:title></dc:title>
      </cc:Work>
    </rdf:RDF>
  </metadata>
  <g
     id="layer1"
     inkscape:groupmode="layer"
     inkscape:label="Layer 1">
    <text
       id="text835"
       y="20.485571"
       x="62.178776"
       style="font-size:7.05556px;line-height:1.25;font-family:sans-serif;-inkscape-font-specification:sans-serif;letter-spacing:0px;stroke-width:0.264583;font-weight:normal;font-style:normal;font-stretch:normal;font-variant:normal;"
       xml:space="preserve"><tspan
         style="stroke-width:0.264583;-inkscape-font-specification:sans-serif;font-family:sans-serif;font-weight:normal;font-style:normal;font-stretch:normal;font-variant:normal;"
         y="20.485571"
         x="62.178776"
         id="tspan833"
         sodipodi:role="line" /></text>
    <text
       id="text839"
       y="18.097466"
       x="59.200447"
       style="font-size:7.05556px;line-height:1.25;font-family:'Airmole Stripe';-inkscape-font-specification:'Airmole Stripe';letter-spacing:0px;stroke-width:0.264583"
       xml:space="preserve"><tspan
         style="stroke-width:0.264583"
         y="18.097466"
         x="59.200447"
         id="tspan837"
         sodipodi:role="line" /></text>
    <text
       id="text843"
       y="12.498664"
       x="66.752525"
       style="font-size:7.05556px;line-height:1.25;font-family:'Airmole Stripe';-inkscape-font-specification:'Airmole Stripe';letter-spacing:0px;stroke-width:0.264583"
       xml:space="preserve"><tspan
         style="font-style:normal;font-variant:normal;font-weight:normal;font-stretch:normal;font-family:'Aachen BT';-inkscape-font-specification:'Aachen BT';stroke-width:0.264583"
         y="12.498664"
         x="66.752525"
         id="tspan841"
         sodipodi:role="line">Representatives Details</tspan></text>
    <text
       id="text856"
       y="46.226013"
       x="159.20009"
       style="font-size:7.05556px;line-height:1.25;font-family:'Airmole Stripe';-inkscape-font-specification:'Airmole Stripe';letter-spacing:0px;stroke-width:0.264583"
       xml:space="preserve"><tspan
         style="stroke-width:0.264583"
         y="46.226013"
         x="159.20009"
         id="tspan854"
         sodipodi:role="line" /></text>
    <text
       id="text860"
       y="41.88887"
       x="149.75372"
       style="font-size:7.05556px;line-height:1.25;font-family:'Airmole Stripe';-inkscape-font-specification:'Airmole Stripe';letter-spacing:0px;stroke-width:0.264583"
       xml:space="preserve"><tspan
         style="stroke-width:0.264583"
         y="41.88887"
         x="149.75372"
         id="tspan858"
         sodipodi:role="line" /><tspan
         id="tspan862"
         style="stroke-width:0.264583"
         y="50.708321"
         x="149.75372"
         sodipodi:role="line" /></text>
    <text
       id="text870"
       y="38.676285"
       x="124.01719"
       style="font-size:7.05556px;line-height:1.25;font-family:Aachen-Bold;-inkscape-font-specification:Aachen-Bold;letter-spacing:0px;stroke-width:0.264583"
       xml:space="preserve"><tspan
         style="stroke-width:0.264583"
         y="38.676285"
         x="124.01719"
         id="tspan868"
         sodipodi:role="line"></tspan></text>
    <text
       xml:space="preserve"
       style="font-size:7.05556px;line-height:1.25;font-family:'Airmole Stripe';-inkscape-font-specification:'Airmole Stripe';letter-spacing:0px;stroke-width:0.264583"
       x="17.777571"
       y="48.72123"
       id="text1076"><tspan
         sodipodi:role="line"
         id="tspan1074"
         x="17.777571"
         y="48.72123"
         style="font-style:normal;font-variant:normal;font-weight:normal;font-stretch:normal;font-family:aakar;-inkscape-font-specification:aakar;stroke-width:0.264583">Sadie Jefferson</tspan></text>
    <text
       xml:space="preserve"
       style="font-size:7.50041px;line-height:1.25;font-family:'Airmole Stripe';-inkscape-font-specification:'Airmole Stripe';letter-spacing:0px;stroke-width:0.281265"
       x="48.275471"
       y="58.832306"
       id="text1080"
       transform="scale(0.94069041,1.063049)"><tspan
         sodipodi:role="line"
         id="tspan1078"
         x="48.275471"
         y="58.832306"
         style="font-style:normal;font-variant:normal;font-weight:normal;font-stretch:normal;font-family:aakar;-inkscape-font-specification:aakar;stroke-width:0.281265">Profile Link</tspan></text>
    <path
       id="path1082"
       font-family="'Bitstream Vera Sans'"
       enable-background="accumulate"
       overflow="visible"
       d="m 145.45132,48.681887 c -0.31142,0 -0.61078,0.19256 -0.81029,0.50436 -0.007,0.0105 -0.0183,0.014 -0.0248,0.0248 l -2.95176,4.05143 c -0.29575,0.41406 -0.44648,0.89566 -0.44648,1.39734 v 2.48873 c 0,1.30849 1.07276,2.38125 2.38125,2.38125 h 5.02708 c 0.40129,0 0.7328,-0.16225 0.95912,-0.38034 0.22631,-0.21808 0.3638,-0.48693 0.3638,-0.76067 0,-0.22596 -0.0527,-0.41238 -0.10749,-0.55397 0.25768,-0.13854 0.63666,-0.40103 0.63666,-1.00046 0,-0.3775 -0.18273,-0.62379 -0.36381,-0.78548 0.18074,-0.1774 0.36381,-0.43893 0.36381,-0.83509 0,-0.59359 -0.37611,-0.83606 -0.59532,-0.95085 0.0231,-0.1363 0.0661,-0.33705 0.0661,-0.57878 0,-0.51823 -0.48838,-1.00481 -1.20716,-1.00872 -0.002,-6e-5 -0.006,6e-5 -0.008,0 -0.82119,-0.0238 -2.80619,-0.0246 -3.29902,-0.0248 0.088,-0.19697 0.15168,-0.33445 0.31419,-0.7028 0.2472,-0.56032 0.50609,-1.1472 0.58704,-1.37253 4.3e-4,-0.001 -3.9e-4,-0.007 0,-0.008 0.0716,-0.18903 0.17364,-0.3762 0.17364,-0.66972 0,-0.40841 -0.15934,-0.72634 -0.37207,-0.92605 -0.21274,-0.19971 -0.46057,-0.28938 -0.68627,-0.28938 z m 0,0.52916 c 0.0653,0 0.21108,0.0443 0.32245,0.14883 0.11138,0.10456 0.20671,0.25793 0.20671,0.53744 0,0.17932 -0.0535,0.25579 -0.14056,0.48782 a 0.26460979,0.26460979 0 0 0 0,0.008 c -0.0527,0.14762 -0.32287,0.77815 -0.5705,1.33945 -0.24764,0.56131 -0.47956,1.07487 -0.47956,1.07487 a 0.26460979,0.26460979 0 0 0 0.23978,0.37207 c 0,0 2.81246,-10e-4 3.69589,0.0248 a 0.26460979,0.26460979 0 0 0 0.008,0 c 0.49351,0 0.68627,0.31198 0.68627,0.47955 0,0.21167 -0.0744,0.66973 -0.0744,0.66973 a 0.26460979,0.26460979 0 0 0 0.17363,0.28939 c 0,0 0.42995,0.13835 0.42995,0.57051 0,0.38763 -0.38861,0.62011 -0.38861,0.62011 a 0.26460979,0.26460979 0 0 0 0.0248,0.47956 c 0,0 0.3638,0.13326 0.3638,0.5209 0,0.43656 -0.5457,0.64492 -0.5457,0.64492 a 0.26460979,0.26460979 0 0 0 -0.12403,0.40514 c 0,0 0.14056,0.18981 0.14056,0.50437 0,0.0702 -0.061,0.24785 -0.19843,0.38034 -0.13749,0.13248 -0.33514,0.23151 -0.59532,0.23151 h -5.02708 c -1.01984,0 -1.85208,-0.83224 -1.85208,-1.85209 v -2.48873 c 0,-0.39541 0.11682,-0.75795 0.34727,-1.08314 0.001,-0.002 -10e-4,-0.006 0,-0.008 l 2.96002,-4.06797 a 0.26460979,0.26460979 0 0 0 0.0165,-0.0248 c 0.11872,-0.19786 0.27892,-0.26459 0.38034,-0.26459 z"
       style="line-height:normal;-inkscape-font-specification:'Bitstream Vera Sans';text-indent:0;text-align:start;text-transform:none;fill:#00ffcc;stroke-width:0.264583" />
    <path
       id="path1084"
       font-family="'Bitstream Vera Sans'"
       enable-background="accumulate"
       overflow="visible"
       d="m 163.21978,49.935932 c -1.3085,0 -2.38127,1.07276 -2.38127,2.38125 v 2.48873 c 0,0.50168 0.15073,0.98328 0.44649,1.39734 l 2.95177,4.05143 c 0.007,0.0108 0.0181,0.0143 0.0248,0.0248 0.19951,0.3118 0.49888,0.50436 0.8103,0.50436 0.22569,0 0.47352,-0.0897 0.68626,-0.28939 0.21273,-0.19971 0.37207,-0.51763 0.37207,-0.92604 0,-0.29692 -0.10356,-0.45949 -0.17363,-0.66973 -0.0796,-0.22278 -0.33859,-0.81761 -0.58705,-1.38079 -0.16251,-0.36835 -0.22614,-0.50583 -0.31419,-0.7028 0.49283,-2.2e-4 2.47783,-9.7e-4 3.29902,-0.0248 0.003,0 0.005,2e-5 0.008,0 0.71878,-0.004 1.20716,-0.49049 1.20716,-1.00872 0,-0.24173 -0.0431,-0.44248 -0.0661,-0.57878 0.21921,-0.11479 0.59532,-0.35726 0.59532,-0.95085 0,-0.39616 -0.18308,-0.65769 -0.36381,-0.83509 0.18108,-0.16169 0.36381,-0.40798 0.36381,-0.78548 0,-0.59943 -0.37898,-0.86192 -0.63666,-1.00046 0.0548,-0.14159 0.10749,-0.32801 0.10749,-0.55397 0,-0.27374 -0.13749,-0.54259 -0.3638,-0.76067 -0.22632,-0.21809 -0.55783,-0.38034 -0.95912,-0.38034 z m 0,0.52916 h 5.02709 c 0.26018,0 0.45783,0.099 0.59532,0.23151 0.13748,0.13249 0.19843,0.31013 0.19843,0.38034 0,0.31456 -0.14056,0.50437 -0.14056,0.50437 a 0.26460979,0.26460979 0 0 0 0.12403,0.40514 c 0,0 0.5457,0.20836 0.5457,0.64492 0,0.38764 -0.3638,0.5209 -0.3638,0.5209 a 0.26460979,0.26460979 0 0 0 -0.0248,0.47956 c 0,0 0.38861,0.23248 0.38861,0.62011 0,0.43216 -0.42995,0.57051 -0.42995,0.57051 a 0.26460979,0.26460979 0 0 0 -0.17363,0.28939 c 0,0 0.0744,0.45806 0.0744,0.66973 0,0.16756 -0.19276,0.47955 -0.68627,0.47955 a 0.26460979,0.26460979 0 0 0 -0.008,0 c -0.88343,0.026 -3.6959,0.0248 -3.6959,0.0248 a 0.26460979,0.26460979 0 0 0 -0.23978,0.37207 c 0,0 0.23192,0.51356 0.47956,1.07487 0.24763,0.5613 0.51779,1.19182 0.57051,1.33945 h -0.008 c 0.0887,0.26601 0.14883,0.31677 0.14883,0.49609 0,0.27951 -0.0953,0.43288 -0.20671,0.53744 -0.11138,0.10456 -0.25712,0.14883 -0.32246,0.14883 -0.10142,0 -0.26163,-0.0667 -0.38034,-0.26459 a 0.26460979,0.26460979 0 0 0 -0.0165,-0.0248 l -2.96004,-4.06797 c -0.002,-0.002 0.001,-0.006 0,-0.008 -0.23045,-0.32519 -0.34727,-0.68773 -0.34727,-1.08314 v -2.48873 c 0,-1.01985 0.83224,-1.85209 1.85209,-1.85209 z"
       style="line-height:normal;-inkscape-font-specification:'Bitstream Vera Sans';text-indent:0;text-align:start;text-transform:none;fill:#00ffcc;stroke-width:0.264583" />
    <text
       xml:space="preserve"
       style="font-size:7.05556px;line-height:1.25;font-family:Aachen-Bold;-inkscape-font-specification:Aachen-Bold;letter-spacing:0px;stroke-width:0.264583"
       x="115.34406"
       y="57.681274"
       id="text1088"><tspan
         sodipodi:role="line"
         id="tspan1086"
         x="115.34406"
         y="57.681274"
         style="font-style:normal;font-variant:normal;font-weight:normal;font-stretch:normal;font-family:'Abyssinica SIL';-inkscape-font-specification:'Abyssinica SIL';stroke-width:0.264583">Upvote</tspan></text>
    <text
       id="text1092"
       y="57.681274"
       x="172.49344"
       style="font-size:7.05556px;line-height:1.25;font-family:Aachen-Bold;-inkscape-font-specification:Aachen-Bold;letter-spacing:0px;stroke-width:0.264583"
       xml:space="preserve"><tspan
         style="font-style:normal;font-variant:normal;font-weight:normal;font-stretch:normal;font-family:'Abyssinica SIL';-inkscape-font-specification:'Abyssinica SIL';stroke-width:0.264583"
         y="57.681274"
         x="172.49344"
         id="tspan1090"
         sodipodi:role="line">Downvote</tspan></text>
    <rect
       ry="6.2079501"
       y="35.543884"
       x="3.2391663"
       height="27.919027"
       width="203.52167"
       id="rect1094"
       style="fill:#ffd5d5;stroke:#faebd7;stroke-width:0.529;stroke-linecap:round;stroke-linejoin:bevel" />
    <text
       id="text1098"
       y="48.72123"
       x="17.777571"
       style="font-size:7.05556px;line-height:1.25;font-family:'Airmole Stripe';-inkscape-font-specification:'Airmole Stripe';letter-spacing:0px;stroke-width:0.264583"
       xml:space="preserve"><tspan
         style="font-style:normal;font-variant:normal;font-weight:normal;font-stretch:normal;font-family:aakar;-inkscape-font-specification:aakar;stroke-width:0.264583"
         y="48.72123"
         x="17.777571"
         id="tspan1096"
         sodipodi:role="line">Ruby Griffith</tspan></text>
    <text
       transform="scale(0.94069041,1.063049)"
       id="text1102"
       y="58.832306"
       x="48.275471"
       style="font-size:7.50041px;line-height:1.25;font-family:'Airmole Stripe';-inkscape-font-specification:'Airmole Stripe';letter-spacing:0px;stroke-width:0.281265"
       xml:space="preserve"><tspan
         style="font-style:normal;font-variant:normal;font-weight:normal;font-stretch:normal;font-family:aakar;-inkscape-font-specification:aakar;stroke-width:0.281265"
         y="58.832306"
         x="48.275471"
         id="tspan1100"
         sodipodi:role="line">Profile Link</tspan></text>
    <path
       style="line-height:normal;-inkscape-font-specification:'Bitstream Vera Sans';text-indent:0;text-align:start;text-transform:none;fill:#00ffcc;stroke-width:0.264583"
       d="m 193.07662,48.681887 c -0.31142,0 -0.61078,0.19256 -0.81029,0.50436 -0.007,0.0105 -0.0183,0.014 -0.0248,0.0248 l -2.95176,4.05143 c -0.29575,0.41406 -0.44648,0.89566 -0.44648,1.39734 v 2.48873 c 0,1.30849 1.07276,2.38125 2.38125,2.38125 h 5.02708 c 0.40129,0 0.7328,-0.16225 0.95912,-0.38034 0.22631,-0.21808 0.3638,-0.48693 0.3638,-0.76067 0,-0.22596 -0.0527,-0.41238 -0.10749,-0.55397 0.25768,-0.13854 0.63666,-0.40103 0.63666,-1.00046 0,-0.3775 -0.18273,-0.62379 -0.36381,-0.78548 0.18074,-0.1774 0.36381,-0.43893 0.36381,-0.83509 0,-0.59359 -0.37611,-0.83606 -0.59532,-0.95085 0.0231,-0.1363 0.0661,-0.33705 0.0661,-0.57878 0,-0.51823 -0.48838,-1.00481 -1.20716,-1.00872 -0.002,-6e-5 -0.006,6e-5 -0.008,0 -0.82119,-0.0238 -2.80619,-0.0246 -3.29902,-0.0248 0.088,-0.19697 0.15168,-0.33445 0.31419,-0.7028 0.2472,-0.56032 0.50609,-1.1472 0.58704,-1.37253 4.3e-4,-0.001 -3.9e-4,-0.007 0,-0.008 0.0716,-0.18903 0.17364,-0.3762 0.17364,-0.66972 0,-0.40841 -0.15934,-0.72634 -0.37207,-0.92605 -0.21274,-0.19971 -0.46057,-0.28938 -0.68627,-0.28938 z m 0,0.52916 c 0.0653,0 0.21108,0.0443 0.32245,0.14883 0.11138,0.10456 0.20671,0.25793 0.20671,0.53744 0,0.17932 -0.0535,0.25579 -0.14056,0.48782 a 0.26460979,0.26460979 0 0 0 0,0.008 c -0.0527,0.14762 -0.32287,0.77815 -0.5705,1.33945 -0.24764,0.56131 -0.47956,1.07487 -0.47956,1.07487 a 0.26460979,0.26460979 0 0 0 0.23978,0.37207 c 0,0 2.81246,-10e-4 3.69589,0.0248 a 0.26460979,0.26460979 0 0 0 0.008,0 c 0.49351,0 0.68627,0.31198 0.68627,0.47955 0,0.21167 -0.0744,0.66973 -0.0744,0.66973 a 0.26460979,0.26460979 0 0 0 0.17363,0.28939 c 0,0 0.42995,0.13835 0.42995,0.57051 0,0.38763 -0.38861,0.62011 -0.38861,0.62011 a 0.26460979,0.26460979 0 0 0 0.0248,0.47956 c 0,0 0.3638,0.13326 0.3638,0.5209 0,0.43656 -0.5457,0.64492 -0.5457,0.64492 a 0.26460979,0.26460979 0 0 0 -0.12403,0.40514 c 0,0 0.14056,0.18981 0.14056,0.50437 0,0.0702 -0.061,0.24785 -0.19843,0.38034 -0.13749,0.13248 -0.33514,0.23151 -0.59532,0.23151 h -5.02708 c -1.01984,0 -1.85208,-0.83224 -1.85208,-1.85209 v -2.48873 c 0,-0.39541 0.11682,-0.75795 0.34727,-1.08314 0.001,-0.002 -0.001,-0.006 0,-0.008 l 2.96002,-4.06797 a 0.26460979,0.26460979 0 0 0 0.0165,-0.0248 c 0.11872,-0.19786 0.27892,-0.26459 0.38034,-0.26459 z"
       overflow="visible"
       enable-background="accumulate"
       font-family="'Bitstream Vera Sans'"
       id="path1104" />
    <text
       id="text1108"
       y="57.681274"
       x="157.67697"
       style="font-size:7.05556px;line-height:1.25;font-family:Aachen-Bold;-inkscape-font-specification:Aachen-Bold;letter-spacing:0px;stroke-width:0.264583"
       xml:space="preserve"><tspan
         style="font-style:normal;font-variant:normal;font-weight:normal;font-stretch:normal;font-family:'Abyssinica SIL';-inkscape-font-specification:'Abyssinica SIL';stroke-width:0.264583"
         y="57.681274"
         x="157.67697"
         id="tspan1106"
         sodipodi:role="line">Approve</tspan></text>
    <text
       xml:space="preserve"
       style="font-size:7.05556px;line-height:1.25;font-family:'Airmole Stripe';-inkscape-font-specification:'Airmole Stripe';letter-spacing:0px;stroke-width:0.264583"
       x="17.777571"
       y="82.587921"
       id="text1114"><tspan
         sodipodi:role="line"
         id="tspan1112"
         x="17.777571"
         y="82.587921"
         style="font-style:normal;font-variant:normal;font-weight:normal;font-stretch:normal;font-family:aakar;-inkscape-font-specification:aakar;stroke-width:0.264583" /></text>
    <rect
       ry="6.2079453"
       y="20.144089"
       x="155.9821"
       height="12.488696"
       width="33.626507"
       id="rect1210"
       style="fill:#ffff00;stroke:#faebd7;stroke-width:0.529;stroke-linecap:round;stroke-linejoin:bevel" />
    <text
       id="text1208"
       y="29.479601"
       x="159.04788"
       style="font-size:7.05556px;line-height:1.25;font-family:Aachen-Bold;-inkscape-font-specification:Aachen-Bold;letter-spacing:0px;stroke-width:0.264583"
       xml:space="preserve"><tspan
         style="font-style:normal;font-variant:normal;font-weight:normal;font-stretch:normal;font-family:aakar;-inkscape-font-specification:aakar;stroke-width:0.264583"
         y="29.479601"
         x="159.04788"
         id="tspan1206"
         sodipodi:role="line">Search</tspan></text>
    <text
       id="text1214"
       y="24.268919"
       x="104.92766"
       style="font-size:7.05556px;line-height:1.25;font-family:Aachen-Bold;-inkscape-font-specification:Aachen-Bold;letter-spacing:0px;stroke-width:0.264583;text-anchor:middle;text-align:center;"
       xml:space="preserve"><tspan
         style="font-style:normal;font-variant:normal;font-weight:normal;font-stretch:normal;font-family:aakar;-inkscape-font-specification:aakar;stroke-width:0.264583;text-anchor:middle;text-align:center;"
         y="24.268919"
         x="72.106209"
         id="tspan1212"
         sodipodi:role="line">Department: Education</tspan><tspan
         id="tspan1825"
         style="font-style:normal;font-variant:normal;font-weight:normal;font-stretch:normal;font-family:aakar;-inkscape-font-specification:aakar;stroke-width:0.264583;text-anchor:middle;text-align:center;"
         y="33.803307"
         x="72.106209"
         sodipodi:role="line">Winners</tspan></text>
    <text
       id="text1829"
       y="44.977718"
       x="193.07661"
       style="font-size:7.05556px;line-height:1.25;font-family:Aachen-Bold;-inkscape-font-specification:Aachen-Bold;letter-spacing:0px;stroke-width:0.264583"
       xml:space="preserve"><tspan
         style="font-style:normal;font-variant:normal;font-weight:normal;font-stretch:normal;font-family:'Acanthus Black SSi';-inkscape-font-specification:'Acanthus Black SSi';stroke-width:0.264583"
         y="44.977718"
         x="193.07661"
         id="tspan1827"
         sodipodi:role="line">50</tspan></text>
    <text
       id="text1833"
       y="83.117096"
       x="17.777571"
       style="font-size:7.05556px;line-height:1.25;font-family:'Airmole Stripe';-inkscape-font-specification:'Airmole Stripe';letter-spacing:0px;stroke-width:0.264583"
       xml:space="preserve"><tspan
         style="font-style:normal;font-variant:normal;font-weight:normal;font-stretch:normal;font-family:aakar;-inkscape-font-specification:aakar;stroke-width:0.264583"
         y="83.117096"
         x="17.777571"
         id="tspan1831"
         sodipodi:role="line">Sadie Jefferson</tspan></text>
    <text
       transform="scale(0.94069041,1.063049)"
       id="text1837"
       y="91.188034"
       x="48.275471"
       style="font-size:7.50041px;line-height:1.25;font-family:'Airmole Stripe';-inkscape-font-specification:'Airmole Stripe';letter-spacing:0px;stroke-width:0.281265"
       xml:space="preserve"><tspan
         style="font-style:normal;font-variant:normal;font-weight:normal;font-stretch:normal;font-family:aakar;-inkscape-font-specification:aakar;stroke-width:0.281265"
         y="91.188034"
         x="48.275471"
         id="tspan1835"
         sodipodi:role="line">Profile Link</tspan></text>
    <path
       style="line-height:normal;-inkscape-font-specification:'Bitstream Vera Sans';text-indent:0;text-align:start;text-transform:none;fill:#00ffcc;stroke-width:0.264583"
       d="m 145.45132,83.077742 c -0.31142,0 -0.61078,0.19256 -0.81029,0.50436 -0.007,0.0105 -0.0183,0.014 -0.0248,0.0248 l -2.95176,4.05143 c -0.29575,0.41406 -0.44648,0.89566 -0.44648,1.39734 v 2.48873 c 0,1.30849 1.07276,2.38125 2.38125,2.38125 h 5.02708 c 0.40129,0 0.7328,-0.16225 0.95912,-0.38034 0.22631,-0.21808 0.3638,-0.48693 0.3638,-0.76067 0,-0.22596 -0.0527,-0.41238 -0.10749,-0.55397 0.25768,-0.13854 0.63666,-0.40103 0.63666,-1.00046 0,-0.3775 -0.18273,-0.62379 -0.36381,-0.78548 0.18074,-0.1774 0.36381,-0.43893 0.36381,-0.83509 0,-0.59359 -0.37611,-0.83606 -0.59532,-0.95085 0.0231,-0.1363 0.0661,-0.33705 0.0661,-0.57878 0,-0.51823 -0.48838,-1.00481 -1.20716,-1.00872 -0.002,-6e-5 -0.006,6e-5 -0.008,0 -0.82119,-0.0238 -2.80619,-0.0246 -3.29902,-0.0248 0.088,-0.19697 0.15168,-0.33445 0.31419,-0.7028 0.2472,-0.56032 0.50609,-1.1472 0.58704,-1.37253 4.3e-4,-0.001 -3.9e-4,-0.007 0,-0.008 0.0716,-0.18903 0.17364,-0.3762 0.17364,-0.66972 0,-0.40841 -0.15934,-0.72634 -0.37207,-0.92605 -0.21274,-0.19971 -0.46057,-0.28938 -0.68627,-0.28938 z m 0,0.52916 c 0.0653,0 0.21108,0.0443 0.32245,0.14883 0.11138,0.10456 0.20671,0.25793 0.20671,0.53744 0,0.17932 -0.0535,0.25579 -0.14056,0.48782 a 0.26460979,0.26460979 0 0 0 0,0.008 c -0.0527,0.14762 -0.32287,0.77815 -0.5705,1.33945 -0.24764,0.56131 -0.47956,1.07487 -0.47956,1.07487 a 0.26460979,0.26460979 0 0 0 0.23978,0.37207 c 0,0 2.81246,-0.001 3.69589,0.0248 a 0.26460979,0.26460979 0 0 0 0.008,0 c 0.49351,0 0.68627,0.31198 0.68627,0.47955 0,0.21167 -0.0744,0.66973 -0.0744,0.66973 a 0.26460979,0.26460979 0 0 0 0.17363,0.28939 c 0,0 0.42995,0.13835 0.42995,0.57051 0,0.38763 -0.38861,0.62011 -0.38861,0.62011 a 0.26460979,0.26460979 0 0 0 0.0248,0.47956 c 0,0 0.3638,0.13326 0.3638,0.5209 0,0.43656 -0.5457,0.64492 -0.5457,0.64492 a 0.26460979,0.26460979 0 0 0 -0.12403,0.40514 c 0,0 0.14056,0.18981 0.14056,0.50437 0,0.0702 -0.061,0.24785 -0.19843,0.38034 -0.13749,0.13248 -0.33514,0.23151 -0.59532,0.23151 h -5.02708 c -1.01984,0 -1.85208,-0.83224 -1.85208,-1.85209 v -2.48873 c 0,-0.39541 0.11682,-0.75795 0.34727,-1.08314 0.001,-0.002 -10e-4,-0.006 0,-0.008 l 2.96002,-4.06797 a 0.26460979,0.26460979 0 0 0 0.0165,-0.0248 c 0.11872,-0.19786 0.27892,-0.26459 0.38034,-0.26459 z"
       overflow="visible"
       enable-background="accumulate"
       font-family="'Bitstream Vera Sans'"
       id="path1839" />
    <path
       style="line-height:normal;-inkscape-font-specification:'Bitstream Vera Sans';text-indent:0;text-align:start;text-transform:none;fill:#00ffcc;stroke-width:0.264583"
       d="m 163.21978,84.331787 c -1.3085,0 -2.38127,1.07276 -2.38127,2.38125 v 2.48873 c 0,0.50168 0.15073,0.98328 0.44649,1.39734 l 2.95177,4.05143 c 0.007,0.0108 0.0181,0.0143 0.0248,0.0248 0.19951,0.3118 0.49888,0.50436 0.8103,0.50436 0.22569,0 0.47352,-0.0897 0.68626,-0.28939 0.21273,-0.19971 0.37207,-0.51763 0.37207,-0.92604 0,-0.29692 -0.10356,-0.45949 -0.17363,-0.66973 -0.0796,-0.22278 -0.33859,-0.81761 -0.58705,-1.38079 -0.16251,-0.36835 -0.22614,-0.50583 -0.31419,-0.7028 0.49283,-2.2e-4 2.47783,-9.7e-4 3.29902,-0.0248 0.003,0 0.005,2e-5 0.008,0 0.71878,-0.004 1.20716,-0.49049 1.20716,-1.00872 0,-0.24173 -0.0431,-0.44248 -0.0661,-0.57878 0.21921,-0.11479 0.59532,-0.35726 0.59532,-0.95085 0,-0.39616 -0.18308,-0.65769 -0.36381,-0.83509 0.18108,-0.16169 0.36381,-0.40798 0.36381,-0.78548 0,-0.59943 -0.37898,-0.86192 -0.63666,-1.00046 0.0548,-0.14159 0.10749,-0.32801 0.10749,-0.55397 0,-0.27374 -0.13749,-0.54259 -0.3638,-0.76067 -0.22632,-0.21809 -0.55783,-0.38034 -0.95912,-0.38034 z m 0,0.52916 h 5.02709 c 0.26018,0 0.45783,0.099 0.59532,0.23151 0.13748,0.13249 0.19843,0.31013 0.19843,0.38034 0,0.31456 -0.14056,0.50437 -0.14056,0.50437 a 0.26460979,0.26460979 0 0 0 0.12403,0.40514 c 0,0 0.5457,0.20836 0.5457,0.64492 0,0.38764 -0.3638,0.5209 -0.3638,0.5209 a 0.26460979,0.26460979 0 0 0 -0.0248,0.47956 c 0,0 0.38861,0.23248 0.38861,0.62011 0,0.43216 -0.42995,0.57051 -0.42995,0.57051 a 0.26460979,0.26460979 0 0 0 -0.17363,0.28939 c 0,0 0.0744,0.45806 0.0744,0.66973 0,0.16756 -0.19276,0.47955 -0.68627,0.47955 a 0.26460979,0.26460979 0 0 0 -0.008,0 c -0.88343,0.026 -3.6959,0.0248 -3.6959,0.0248 a 0.26460979,0.26460979 0 0 0 -0.23978,0.37207 c 0,0 0.23192,0.51356 0.47956,1.07487 0.24763,0.5613 0.51779,1.19182 0.57051,1.33945 h -0.008 c 0.0887,0.26601 0.14883,0.31677 0.14883,0.49609 0,0.27951 -0.0953,0.43288 -0.20671,0.53744 -0.11138,0.10456 -0.25712,0.14883 -0.32246,0.14883 -0.10142,0 -0.26163,-0.0667 -0.38034,-0.26459 a 0.26460979,0.26460979 0 0 0 -0.0165,-0.0248 l -2.96004,-4.06797 c -0.002,-0.002 0.001,-0.006 0,-0.008 -0.23045,-0.32519 -0.34727,-0.68773 -0.34727,-1.08314 v -2.48873 c 0,-1.01985 0.83224,-1.85209 1.85209,-1.85209 z"
       overflow="visible"
       enable-background="accumulate"
       font-family="'Bitstream Vera Sans'"
       id="path1841" />
    <text
       id="text1845"
       y="92.077141"
       x="115.34406"
       style="font-size:7.05556px;line-height:1.25;font-family:Aachen-Bold;-inkscape-font-specification:Aachen-Bold;letter-spacing:0px;stroke-width:0.264583"
       xml:space="preserve"><tspan
         style="font-style:normal;font-variant:normal;font-weight:normal;font-stretch:normal;font-family:'Abyssinica SIL';-inkscape-font-specification:'Abyssinica SIL';stroke-width:0.264583"
         y="92.077141"
         x="115.34406"
         id="tspan1843"
         sodipodi:role="line">Upvote</tspan></text>
    <text
       xml:space="preserve"
       style="font-size:7.05556px;line-height:1.25;font-family:Aachen-Bold;-inkscape-font-specification:Aachen-Bold;letter-spacing:0px;stroke-width:0.264583"
       x="172.49344"
       y="92.077141"
       id="text1849"><tspan
         sodipodi:role="line"
         id="tspan1847"
         x="172.49344"
         y="92.077141"
         style="font-style:normal;font-variant:normal;font-weight:normal;font-stretch:normal;font-family:'Abyssinica SIL';-inkscape-font-specification:'Abyssinica SIL';stroke-width:0.264583">Downvote</tspan></text>
    <rect
       style="fill:#ffd5d5;stroke:#faebd7;stroke-width:0.529;stroke-linecap:round;stroke-linejoin:bevel"
       id="rect1851"
       width="203.52167"
       height="27.919027"
       x="3.2391663"
       y="69.939751"
       ry="6.2079501" />
    <text
       xml:space="preserve"
       style="font-size:7.05556px;line-height:1.25;font-family:'Airmole Stripe';-inkscape-font-specification:'Airmole Stripe';letter-spacing:0px;stroke-width:0.264583"
       x="17.777571"
       y="83.117096"
       id="text1855"><tspan
         sodipodi:role="line"
         id="tspan1853"
         x="17.777571"
         y="83.117096"
         style="font-style:normal;font-variant:normal;font-weight:normal;font-stretch:normal;font-family:aakar;-inkscape-font-specification:aakar;stroke-width:0.264583">Steve Reid</tspan></text>
    <text
       xml:space="preserve"
       style="font-size:7.50041px;line-height:1.25;font-family:'Airmole Stripe';-inkscape-font-specification:'Airmole Stripe';letter-spacing:0px;stroke-width:0.281265"
       x="48.275471"
       y="91.188034"
       id="text1859"
       transform="scale(0.94069041,1.063049)"><tspan
         sodipodi:role="line"
         id="tspan1857"
         x="48.275471"
         y="91.188034"
         style="font-style:normal;font-variant:normal;font-weight:normal;font-stretch:normal;font-family:aakar;-inkscape-font-specification:aakar;stroke-width:0.281265">Profile Link</tspan></text>
    <path
       id="path1861"
       font-family="'Bitstream Vera Sans'"
       enable-background="accumulate"
       overflow="visible"
       d="m 193.07662,83.077742 c -0.31142,0 -0.61078,0.19256 -0.81029,0.50436 -0.007,0.0105 -0.0183,0.014 -0.0248,0.0248 l -2.95176,4.05143 c -0.29575,0.41406 -0.44648,0.89566 -0.44648,1.39734 v 2.48873 c 0,1.30849 1.07276,2.38125 2.38125,2.38125 h 5.02708 c 0.40129,0 0.7328,-0.16225 0.95912,-0.38034 0.22631,-0.21808 0.3638,-0.48693 0.3638,-0.76067 0,-0.22596 -0.0527,-0.41238 -0.10749,-0.55397 0.25768,-0.13854 0.63666,-0.40103 0.63666,-1.00046 0,-0.3775 -0.18273,-0.62379 -0.36381,-0.78548 0.18074,-0.1774 0.36381,-0.43893 0.36381,-0.83509 0,-0.59359 -0.37611,-0.83606 -0.59532,-0.95085 0.0231,-0.1363 0.0661,-0.33705 0.0661,-0.57878 0,-0.51823 -0.48838,-1.00481 -1.20716,-1.00872 -0.002,-6e-5 -0.006,6e-5 -0.008,0 -0.82119,-0.0238 -2.80619,-0.0246 -3.29902,-0.0248 0.088,-0.19697 0.15168,-0.33445 0.31419,-0.7028 0.2472,-0.56032 0.50609,-1.1472 0.58704,-1.37253 4.3e-4,-0.001 -3.9e-4,-0.007 0,-0.008 0.0716,-0.18903 0.17364,-0.3762 0.17364,-0.66972 0,-0.40841 -0.15934,-0.72634 -0.37207,-0.92605 -0.21274,-0.19971 -0.46057,-0.28938 -0.68627,-0.28938 z m 0,0.52916 c 0.0653,0 0.21108,0.0443 0.32245,0.14883 0.11138,0.10456 0.20671,0.25793 0.20671,0.53744 0,0.17932 -0.0535,0.25579 -0.14056,0.48782 a 0.26460979,0.26460979 0 0 0 0,0.008 c -0.0527,0.14762 -0.32287,0.77815 -0.5705,1.33945 -0.24764,0.56131 -0.47956,1.07487 -0.47956,1.07487 a 0.26460979,0.26460979 0 0 0 0.23978,0.37207 c 0,0 2.81246,-0.001 3.69589,0.0248 a 0.26460979,0.26460979 0 0 0 0.008,0 c 0.49351,0 0.68627,0.31198 0.68627,0.47955 0,0.21167 -0.0744,0.66973 -0.0744,0.66973 a 0.26460979,0.26460979 0 0 0 0.17363,0.28939 c 0,0 0.42995,0.13835 0.42995,0.57051 0,0.38763 -0.38861,0.62011 -0.38861,0.62011 a 0.26460979,0.26460979 0 0 0 0.0248,0.47956 c 0,0 0.3638,0.13326 0.3638,0.5209 0,0.43656 -0.5457,0.64492 -0.5457,0.64492 a 0.26460979,0.26460979 0 0 0 -0.12403,0.40514 c 0,0 0.14056,0.18981 0.14056,0.50437 0,0.0702 -0.061,0.24785 -0.19843,0.38034 -0.13749,0.13248 -0.33514,0.23151 -0.59532,0.23151 h -5.02708 c -1.01984,0 -1.85208,-0.83224 -1.85208,-1.85209 v -2.48873 c 0,-0.39541 0.11682,-0.75795 0.34727,-1.08314 0.001,-0.002 -0.001,-0.006 0,-0.008 l 2.96002,-4.06797 a 0.26460979,0.26460979 0 0 0 0.0165,-0.0248 c 0.11872,-0.19786 0.27892,-0.26459 0.38034,-0.26459 z"
       style="line-height:normal;-inkscape-font-specification:'Bitstream Vera Sans';text-indent:0;text-align:start;text-transform:none;fill:#00ffcc;stroke-width:0.264583" />
    <text
       xml:space="preserve"
       style="font-size:7.05556px;line-height:1.25;font-family:Aachen-Bold;-inkscape-font-specification:Aachen-Bold;letter-spacing:0px;stroke-width:0.264583"
       x="157.67697"
       y="92.077141"
       id="text1865"><tspan
         sodipodi:role="line"
         id="tspan1863"
         x="157.67697"
         y="92.077141"
         style="font-style:normal;font-variant:normal;font-weight:normal;font-stretch:normal;font-family:'Abyssinica SIL';-inkscape-font-specification:'Abyssinica SIL';stroke-width:0.264583">Approve</tspan></text>
    <text
       xml:space="preserve"
       style="font-size:7.05556px;line-height:1.25;font-family:Aachen-Bold;-inkscape-font-specification:Aachen-Bold;letter-spacing:0px;stroke-width:0.264583"
       x="193.07661"
       y="79.373581"
       id="text1869"><tspan
         sodipodi:role="line"
         id="tspan1867"
         x="193.07661"
         y="79.373581"
         style="font-style:normal;font-variant:normal;font-weight:normal;font-stretch:normal;font-family:'Acanthus Black SSi';-inkscape-font-specification:'Acanthus Black SSi';stroke-width:0.264583">49</tspan></text>
    <text
       xml:space="preserve"
       style="font-size:7.05556px;line-height:1.25;font-family:'Airmole Stripe';-inkscape-font-specification:'Airmole Stripe';letter-spacing:0px;stroke-width:0.264583"
       x="17.777571"
       y="116.45461"
       id="text1873"><tspan
         sodipodi:role="line"
         id="tspan1871"
         x="17.777571"
         y="116.45461"
         style="font-style:normal;font-variant:normal;font-weight:normal;font-stretch:normal;font-family:aakar;-inkscape-font-specification:aakar;stroke-width:0.264583">Sadie Jefferson</tspan></text>
    <text
       xml:space="preserve"
       style="font-size:7.50041px;line-height:1.25;font-family:'Airmole Stripe';-inkscape-font-specification:'Airmole Stripe';letter-spacing:0px;stroke-width:0.281265"
       x="48.275471"
       y="122.54817"
       id="text1877"
       transform="scale(0.94069041,1.063049)"><tspan
         sodipodi:role="line"
         id="tspan1875"
         x="48.275471"
         y="122.54817"
         style="font-style:normal;font-variant:normal;font-weight:normal;font-stretch:normal;font-family:aakar;-inkscape-font-specification:aakar;stroke-width:0.281265">Profile Link</tspan></text>
    <path
       id="path1879"
       font-family="'Bitstream Vera Sans'"
       enable-background="accumulate"
       overflow="visible"
       d="m 145.45132,116.41536 c -0.31142,0 -0.61078,0.19256 -0.81029,0.50436 -0.007,0.0105 -0.0183,0.014 -0.0248,0.0248 l -2.95176,4.05145 c -0.29575,0.41406 -0.44648,0.89567 -0.44648,1.39735 v 2.48874 c 0,1.3085 1.07276,2.38127 2.38125,2.38127 h 5.02708 c 0.40129,0 0.7328,-0.16225 0.95912,-0.38035 0.22631,-0.21808 0.3638,-0.48693 0.3638,-0.76067 0,-0.22596 -0.0527,-0.41238 -0.10749,-0.55397 0.25768,-0.13854 0.63666,-0.40104 0.63666,-1.00047 0,-0.3775 -0.18273,-0.62379 -0.36381,-0.78549 0.18074,-0.1774 0.36381,-0.43893 0.36381,-0.83509 0,-0.59359 -0.37611,-0.83606 -0.59532,-0.95085 0.0231,-0.1363 0.0661,-0.33706 0.0661,-0.57879 0,-0.51823 -0.48838,-1.00481 -1.20716,-1.00872 -0.002,-6e-5 -0.006,6e-5 -0.008,0 -0.82119,-0.0238 -2.80619,-0.0246 -3.29902,-0.0248 0.088,-0.19697 0.15168,-0.33446 0.31419,-0.70281 0.2472,-0.56032 0.50609,-1.1472 0.58704,-1.37254 4.3e-4,-0.001 -3.9e-4,-0.007 0,-0.008 0.0716,-0.18903 0.17364,-0.3762 0.17364,-0.66972 0,-0.40841 -0.15934,-0.72635 -0.37207,-0.92606 -0.21274,-0.19971 -0.46057,-0.28938 -0.68627,-0.28938 z m 0,0.52916 c 0.0653,0 0.21108,0.0443 0.32245,0.14883 0.11138,0.10456 0.20671,0.25793 0.20671,0.53744 0,0.17932 -0.0535,0.25579 -0.14056,0.48782 a 0.26460979,0.26460979 0 0 0 0,0.008 c -0.0527,0.14762 -0.32287,0.77816 -0.5705,1.33946 -0.24764,0.56131 -0.47956,1.07488 -0.47956,1.07488 a 0.26460979,0.26460979 0 0 0 0.23978,0.37207 c 0,0 2.81246,-0.001 3.69589,0.0248 a 0.26460979,0.26460979 0 0 0 0.008,0 c 0.49351,0 0.68627,0.31198 0.68627,0.47955 0,0.21167 -0.0744,0.66974 -0.0744,0.66974 a 0.26460979,0.26460979 0 0 0 0.17363,0.28939 c 0,0 0.42995,0.13835 0.42995,0.57051 0,0.38763 -0.38861,0.62011 -0.38861,0.62011 a 0.26460979,0.26460979 0 0 0 0.0248,0.47957 c 0,0 0.3638,0.13326 0.3638,0.5209 0,0.43656 -0.5457,0.64492 -0.5457,0.64492 a 0.26460979,0.26460979 0 0 0 -0.12403,0.40515 c 0,0 0.14056,0.18981 0.14056,0.50437 0,0.0702 -0.061,0.24785 -0.19843,0.38034 -0.13749,0.13248 -0.33514,0.23151 -0.59532,0.23151 h -5.02708 c -1.01984,0 -1.85208,-0.83224 -1.85208,-1.8521 v -2.48874 c 0,-0.39541 0.11682,-0.75796 0.34727,-1.08315 0.001,-0.002 -10e-4,-0.006 0,-0.008 l 2.96002,-4.06799 a 0.26460979,0.26460979 0 0 0 0.0165,-0.0248 c 0.11872,-0.19786 0.27892,-0.26459 0.38034,-0.26459 z"
       style="line-height:normal;-inkscape-font-specification:'Bitstream Vera Sans';text-indent:0;text-align:start;text-transform:none;fill:#00ffcc;stroke-width:0.264583" />
    <path
       id="path1881"
       font-family="'Bitstream Vera Sans'"
       enable-background="accumulate"
       overflow="visible"
       d="m 163.21978,117.66941 c -1.3085,0 -2.38127,1.07276 -2.38127,2.38126 v 2.48874 c 0,0.50169 0.15073,0.98329 0.44649,1.39735 l 2.95177,4.05145 c 0.007,0.0108 0.0181,0.0143 0.0248,0.0248 0.19951,0.31181 0.49888,0.50437 0.8103,0.50437 0.22569,0 0.47352,-0.0897 0.68626,-0.28939 0.21273,-0.19972 0.37207,-0.51764 0.37207,-0.92605 0,-0.29692 -0.10356,-0.45949 -0.17363,-0.66973 -0.0796,-0.22279 -0.33859,-0.81762 -0.58705,-1.3808 -0.16251,-0.36835 -0.22614,-0.50583 -0.31419,-0.7028 0.49283,-2.2e-4 2.47783,-9.7e-4 3.29902,-0.0248 0.003,0 0.005,2e-5 0.008,0 0.71878,-0.004 1.20716,-0.4905 1.20716,-1.00873 0,-0.24173 -0.0431,-0.44248 -0.0661,-0.57878 0.21921,-0.11479 0.59532,-0.35727 0.59532,-0.95086 0,-0.39616 -0.18308,-0.65769 -0.36381,-0.8351 0.18108,-0.16169 0.36381,-0.40798 0.36381,-0.78548 0,-0.59943 -0.37898,-0.86192 -0.63666,-1.00046 0.0548,-0.14159 0.10749,-0.32802 0.10749,-0.55398 0,-0.27374 -0.13749,-0.54259 -0.3638,-0.76067 -0.22632,-0.21809 -0.55783,-0.38034 -0.95912,-0.38034 z m 0,0.52916 h 5.02709 c 0.26018,0 0.45783,0.099 0.59532,0.23151 0.13748,0.13249 0.19843,0.31013 0.19843,0.38034 0,0.31457 -0.14056,0.50438 -0.14056,0.50438 a 0.26460979,0.26460979 0 0 0 0.12403,0.40514 c 0,0 0.5457,0.20836 0.5457,0.64492 0,0.38764 -0.3638,0.5209 -0.3638,0.5209 a 0.26460979,0.26460979 0 0 0 -0.0248,0.47957 c 0,0 0.38861,0.23248 0.38861,0.62011 0,0.43216 -0.42995,0.57051 -0.42995,0.57051 a 0.26460979,0.26460979 0 0 0 -0.17363,0.2894 c 0,0 0.0744,0.45806 0.0744,0.66973 0,0.16756 -0.19276,0.47955 -0.68627,0.47955 a 0.26460979,0.26460979 0 0 0 -0.008,0 c -0.88343,0.026 -3.6959,0.0248 -3.6959,0.0248 a 0.26460979,0.26460979 0 0 0 -0.23978,0.37208 c 0,0 0.23192,0.51356 0.47956,1.07487 0.24763,0.5613 0.51779,1.19183 0.57051,1.33946 h -0.008 c 0.0887,0.26601 0.14883,0.31677 0.14883,0.49609 0,0.27951 -0.0953,0.43288 -0.20671,0.53744 -0.11138,0.10456 -0.25712,0.14883 -0.32246,0.14883 -0.10142,0 -0.26163,-0.0667 -0.38034,-0.26459 a 0.26460979,0.26460979 0 0 0 -0.0165,-0.0248 l -2.96004,-4.06799 c -0.002,-0.002 0.001,-0.006 0,-0.008 -0.23045,-0.32519 -0.34727,-0.68773 -0.34727,-1.08315 v -2.48874 c 0,-1.01986 0.83224,-1.8521 1.85209,-1.8521 z"
       style="line-height:normal;-inkscape-font-specification:'Bitstream Vera Sans';text-indent:0;text-align:start;text-transform:none;fill:#00ffcc;stroke-width:0.264583" />
    <text
       xml:space="preserve"
       style="font-size:7.05556px;line-height:1.25;font-family:Aachen-Bold;-inkscape-font-specification:Aachen-Bold;letter-spacing:0px;stroke-width:0.264583"
       x="115.34406"
       y="125.41462"
       id="text1885"><tspan
         sodipodi:role="line"
         id="tspan1883"
         x="115.34406"
         y="125.41462"
         style="font-style:normal;font-variant:normal;font-weight:normal;font-stretch:normal;font-family:'Abyssinica SIL';-inkscape-font-specification:'Abyssinica SIL';stroke-width:0.264583">Upvote</tspan></text>
    <text
       id="text1889"
       y="125.41462"
       x="172.49344"
       style="font-size:7.05556px;line-height:1.25;font-family:Aachen-Bold;-inkscape-font-specification:Aachen-Bold;letter-spacing:0px;stroke-width:0.264583"
       xml:space="preserve"><tspan
         style="font-style:normal;font-variant:normal;font-weight:normal;font-stretch:normal;font-family:'Abyssinica SIL';-inkscape-font-specification:'Abyssinica SIL';stroke-width:0.264583"
         y="125.41462"
         x="172.49344"
         id="tspan1887"
         sodipodi:role="line">Downvote</tspan></text>
    <rect
       ry="6.2079501"
       y="103.27728"
       x="3.2391663"
       height="27.919027"
       width="203.52167"
       id="rect1891"
       style="fill:#ffd5d5;stroke:#faebd7;stroke-width:0.529;stroke-linecap:round;stroke-linejoin:bevel" />
    <text
       id="text1895"
       y="116.45461"
       x="17.777571"
       style="font-size:7.05556px;line-height:1.25;font-family:'Airmole Stripe';-inkscape-font-specification:'Airmole Stripe';letter-spacing:0px;stroke-width:0.264583"
       xml:space="preserve"><tspan
         style="font-style:normal;font-variant:normal;font-weight:normal;font-stretch:normal;font-family:aakar;-inkscape-font-specification:aakar;stroke-width:0.264583"
         y="116.45461"
         x="17.777571"
         id="tspan1893"
         sodipodi:role="line">Daisy Andrews</tspan></text>
    <text
       transform="scale(0.94069041,1.063049)"
       id="text1899"
       y="122.54817"
       x="48.275471"
       style="font-size:7.50041px;line-height:1.25;font-family:'Airmole Stripe';-inkscape-font-specification:'Airmole Stripe';letter-spacing:0px;stroke-width:0.281265"
       xml:space="preserve"><tspan
         style="font-style:normal;font-variant:normal;font-weight:normal;font-stretch:normal;font-family:aakar;-inkscape-font-specification:aakar;stroke-width:0.281265"
         y="122.54817"
         x="48.275471"
         id="tspan1897"
         sodipodi:role="line">Profile Link</tspan></text>
    <path
       style="line-height:normal;-inkscape-font-specification:'Bitstream Vera Sans';text-indent:0;text-align:start;text-transform:none;fill:#00ffcc;stroke-width:0.264583"
       d="m 193.07662,116.41536 c -0.31142,0 -0.61078,0.19256 -0.81029,0.50436 -0.007,0.0105 -0.0183,0.014 -0.0248,0.0248 l -2.95176,4.05145 c -0.29575,0.41406 -0.44648,0.89567 -0.44648,1.39735 v 2.48874 c 0,1.3085 1.07276,2.38127 2.38125,2.38127 h 5.02708 c 0.40129,0 0.7328,-0.16225 0.95912,-0.38035 0.22631,-0.21808 0.3638,-0.48693 0.3638,-0.76067 0,-0.22596 -0.0527,-0.41238 -0.10749,-0.55397 0.25768,-0.13854 0.63666,-0.40104 0.63666,-1.00047 0,-0.3775 -0.18273,-0.62379 -0.36381,-0.78549 0.18074,-0.1774 0.36381,-0.43893 0.36381,-0.83509 0,-0.59359 -0.37611,-0.83606 -0.59532,-0.95085 0.0231,-0.1363 0.0661,-0.33706 0.0661,-0.57879 0,-0.51823 -0.48838,-1.00481 -1.20716,-1.00872 -0.002,-6e-5 -0.006,6e-5 -0.008,0 -0.82119,-0.0238 -2.80619,-0.0246 -3.29902,-0.0248 0.088,-0.19697 0.15168,-0.33446 0.31419,-0.70281 0.2472,-0.56032 0.50609,-1.1472 0.58704,-1.37254 4.3e-4,-0.001 -3.9e-4,-0.007 0,-0.008 0.0716,-0.18903 0.17364,-0.3762 0.17364,-0.66972 0,-0.40841 -0.15934,-0.72635 -0.37207,-0.92606 -0.21274,-0.19971 -0.46057,-0.28938 -0.68627,-0.28938 z m 0,0.52916 c 0.0653,0 0.21108,0.0443 0.32245,0.14883 0.11138,0.10456 0.20671,0.25793 0.20671,0.53744 0,0.17932 -0.0535,0.25579 -0.14056,0.48782 a 0.26460979,0.26460979 0 0 0 0,0.008 c -0.0527,0.14762 -0.32287,0.77816 -0.5705,1.33946 -0.24764,0.56131 -0.47956,1.07488 -0.47956,1.07488 a 0.26460979,0.26460979 0 0 0 0.23978,0.37207 c 0,0 2.81246,-0.001 3.69589,0.0248 a 0.26460979,0.26460979 0 0 0 0.008,0 c 0.49351,0 0.68627,0.31198 0.68627,0.47955 0,0.21167 -0.0744,0.66974 -0.0744,0.66974 a 0.26460979,0.26460979 0 0 0 0.17363,0.28939 c 0,0 0.42995,0.13835 0.42995,0.57051 0,0.38763 -0.38861,0.62011 -0.38861,0.62011 a 0.26460979,0.26460979 0 0 0 0.0248,0.47957 c 0,0 0.3638,0.13326 0.3638,0.5209 0,0.43656 -0.5457,0.64492 -0.5457,0.64492 a 0.26460979,0.26460979 0 0 0 -0.12403,0.40515 c 0,0 0.14056,0.18981 0.14056,0.50437 0,0.0702 -0.061,0.24785 -0.19843,0.38034 -0.13749,0.13248 -0.33514,0.23151 -0.59532,0.23151 h -5.02708 c -1.01984,0 -1.85208,-0.83224 -1.85208,-1.8521 v -2.48874 c 0,-0.39541 0.11682,-0.75796 0.34727,-1.08315 0.001,-0.002 -0.001,-0.006 0,-0.008 l 2.96002,-4.06799 a 0.26460979,0.26460979 0 0 0 0.0165,-0.0248 c 0.11872,-0.19786 0.27892,-0.26459 0.38034,-0.26459 z"
       overflow="visible"
       enable-background="accumulate"
       font-family="'Bitstream Vera Sans'"
       id="path1901" />
    <text
       id="text1905"
       y="125.41462"
       x="157.67697"
       style="font-size:7.05556px;line-height:1.25;font-family:Aachen-Bold;-inkscape-font-specification:Aachen-Bold;letter-spacing:0px;stroke-width:0.264583"
       xml:space="preserve"><tspan
         style="font-style:normal;font-variant:normal;font-weight:normal;font-stretch:normal;font-family:'Abyssinica SIL';-inkscape-font-specification:'Abyssinica SIL';stroke-width:0.264583"
         y="125.41462"
         x="157.67697"
         id="tspan1903"
         sodipodi:role="line">Approve</tspan></text>
    <text
       id="text1909"
       y="112.71109"
       x="193.07661"
       style="font-size:7.05556px;line-height:1.25;font-family:Aachen-Bold;-inkscape-font-specification:Aachen-Bold;letter-spacing:0px;stroke-width:0.264583"
       xml:space="preserve"><tspan
         style="font-style:normal;font-variant:normal;font-weight:normal;font-stretch:normal;font-family:'Acanthus Black SSi';-inkscape-font-specification:'Acanthus Black SSi';stroke-width:0.264583"
         y="112.71109"
         x="193.07661"
         id="tspan1907"
         sodipodi:role="line">45</tspan></text>
    <text
       id="text1913"
       y="151.37929"
       x="17.777571"
       style="font-size:7.05556px;line-height:1.25;font-family:'Airmole Stripe';-inkscape-font-specification:'Airmole Stripe';letter-spacing:0px;stroke-width:0.264583"
       xml:space="preserve"><tspan
         style="font-style:normal;font-variant:normal;font-weight:normal;font-stretch:normal;font-family:aakar;-inkscape-font-specification:aakar;stroke-width:0.264583"
         y="151.37929"
         x="17.777571"
         id="tspan1911"
         sodipodi:role="line">Sadie Jefferson</tspan></text>
    <text
       transform="scale(0.94069041,1.063049)"
       id="text1917"
       y="155.40207"
       x="48.275471"
       style="font-size:7.50041px;line-height:1.25;font-family:'Airmole Stripe';-inkscape-font-specification:'Airmole Stripe';letter-spacing:0px;stroke-width:0.281265"
       xml:space="preserve"><tspan
         style="font-style:normal;font-variant:normal;font-weight:normal;font-stretch:normal;font-family:aakar;-inkscape-font-specification:aakar;stroke-width:0.281265"
         y="155.40207"
         x="48.275471"
         id="tspan1915"
         sodipodi:role="line">Profile Link</tspan></text>
    <path
       style="line-height:normal;-inkscape-font-specification:'Bitstream Vera Sans';text-indent:0;text-align:start;text-transform:none;fill:#00ffcc;stroke-width:0.264583"
       d="m 145.45132,151.34058 c -0.31142,0 -0.61078,0.19256 -0.81029,0.50436 -0.007,0.0105 -0.0183,0.014 -0.0248,0.0248 l -2.95176,4.05145 c -0.29575,0.41406 -0.44648,0.89567 -0.44648,1.39735 v 2.48874 c 0,1.3085 1.07276,2.38127 2.38125,2.38127 h 5.02708 c 0.40129,0 0.7328,-0.16225 0.95912,-0.38035 0.22631,-0.21808 0.3638,-0.48693 0.3638,-0.76067 0,-0.22596 -0.0527,-0.41238 -0.10749,-0.55397 0.25768,-0.13854 0.63666,-0.40104 0.63666,-1.00047 0,-0.3775 -0.18273,-0.62379 -0.36381,-0.78549 0.18074,-0.1774 0.36381,-0.43893 0.36381,-0.83509 0,-0.59359 -0.37611,-0.83606 -0.59532,-0.95085 0.0231,-0.1363 0.0661,-0.33706 0.0661,-0.57879 0,-0.51823 -0.48838,-1.00481 -1.20716,-1.00872 -0.002,-6e-5 -0.006,6e-5 -0.008,0 -0.82119,-0.0238 -2.80619,-0.0246 -3.29902,-0.0248 0.088,-0.19697 0.15168,-0.33446 0.31419,-0.70281 0.2472,-0.56032 0.50609,-1.1472 0.58704,-1.37254 4.3e-4,-0.001 -3.9e-4,-0.007 0,-0.008 0.0716,-0.18903 0.17364,-0.3762 0.17364,-0.66972 0,-0.40841 -0.15934,-0.72635 -0.37207,-0.92606 -0.21274,-0.19971 -0.46057,-0.28938 -0.68627,-0.28938 z m 0,0.52916 c 0.0653,0 0.21108,0.0443 0.32245,0.14883 0.11138,0.10456 0.20671,0.25793 0.20671,0.53744 0,0.17932 -0.0535,0.25579 -0.14056,0.48782 a 0.26460979,0.26460979 0 0 0 0,0.008 c -0.0527,0.14762 -0.32287,0.77816 -0.5705,1.33946 -0.24764,0.56131 -0.47956,1.07488 -0.47956,1.07488 a 0.26460979,0.26460979 0 0 0 0.23978,0.37207 c 0,0 2.81246,-0.001 3.69589,0.0248 a 0.26460979,0.26460979 0 0 0 0.008,0 c 0.49351,0 0.68627,0.31198 0.68627,0.47955 0,0.21167 -0.0744,0.66974 -0.0744,0.66974 a 0.26460979,0.26460979 0 0 0 0.17363,0.28939 c 0,0 0.42995,0.13835 0.42995,0.57051 0,0.38763 -0.38861,0.62011 -0.38861,0.62011 a 0.26460979,0.26460979 0 0 0 0.0248,0.47957 c 0,0 0.3638,0.13326 0.3638,0.5209 0,0.43656 -0.5457,0.64492 -0.5457,0.64492 a 0.26460979,0.26460979 0 0 0 -0.12403,0.40515 c 0,0 0.14056,0.18981 0.14056,0.50437 0,0.0702 -0.061,0.24785 -0.19843,0.38034 -0.13749,0.13248 -0.33514,0.23151 -0.59532,0.23151 h -5.02708 c -1.01984,0 -1.85208,-0.83224 -1.85208,-1.8521 v -2.48874 c 0,-0.39541 0.11682,-0.75796 0.34727,-1.08315 0.001,-0.002 -10e-4,-0.006 0,-0.008 l 2.96002,-4.06799 a 0.26460979,0.26460979 0 0 0 0.0165,-0.0248 c 0.11872,-0.19786 0.27892,-0.26459 0.38034,-0.26459 z"
       overflow="visible"
       enable-background="accumulate"
       font-family="'Bitstream Vera Sans'"
       id="path1919" />
    <path
       style="line-height:normal;-inkscape-font-specification:'Bitstream Vera Sans';text-indent:0;text-align:start;text-transform:none;fill:#00ffcc;stroke-width:0.264583"
       d="m 163.21978,152.59463 c -1.3085,0 -2.38127,1.07276 -2.38127,2.38126 v 2.48874 c 0,0.50169 0.15073,0.98329 0.44649,1.39735 l 2.95177,4.05145 c 0.007,0.0108 0.0181,0.0143 0.0248,0.0248 0.19951,0.31181 0.49888,0.50437 0.8103,0.50437 0.22569,0 0.47352,-0.0897 0.68626,-0.28939 0.21273,-0.19972 0.37207,-0.51764 0.37207,-0.92605 0,-0.29692 -0.10356,-0.45949 -0.17363,-0.66973 -0.0796,-0.22279 -0.33859,-0.81762 -0.58705,-1.3808 -0.16251,-0.36835 -0.22614,-0.50583 -0.31419,-0.7028 0.49283,-2.2e-4 2.47783,-9.7e-4 3.29902,-0.0248 0.003,0 0.005,2e-5 0.008,0 0.71878,-0.004 1.20716,-0.4905 1.20716,-1.00873 0,-0.24173 -0.0431,-0.44248 -0.0661,-0.57878 0.21921,-0.11479 0.59532,-0.35727 0.59532,-0.95086 0,-0.39616 -0.18308,-0.65769 -0.36381,-0.8351 0.18108,-0.16169 0.36381,-0.40798 0.36381,-0.78548 0,-0.59943 -0.37898,-0.86192 -0.63666,-1.00046 0.0548,-0.14159 0.10749,-0.32802 0.10749,-0.55398 0,-0.27374 -0.13749,-0.54259 -0.3638,-0.76067 -0.22632,-0.21809 -0.55783,-0.38034 -0.95912,-0.38034 z m 0,0.52916 h 5.02709 c 0.26018,0 0.45783,0.099 0.59532,0.23151 0.13748,0.13249 0.19843,0.31013 0.19843,0.38034 0,0.31457 -0.14056,0.50438 -0.14056,0.50438 a 0.26460979,0.26460979 0 0 0 0.12403,0.40514 c 0,0 0.5457,0.20836 0.5457,0.64492 0,0.38764 -0.3638,0.5209 -0.3638,0.5209 a 0.26460979,0.26460979 0 0 0 -0.0248,0.47957 c 0,0 0.38861,0.23248 0.38861,0.62011 0,0.43216 -0.42995,0.57051 -0.42995,0.57051 a 0.26460979,0.26460979 0 0 0 -0.17363,0.2894 c 0,0 0.0744,0.45806 0.0744,0.66973 0,0.16756 -0.19276,0.47955 -0.68627,0.47955 a 0.26460979,0.26460979 0 0 0 -0.008,0 c -0.88343,0.026 -3.6959,0.0248 -3.6959,0.0248 a 0.26460979,0.26460979 0 0 0 -0.23978,0.37208 c 0,0 0.23192,0.51356 0.47956,1.07487 0.24763,0.5613 0.51779,1.19183 0.57051,1.33946 h -0.008 c 0.0887,0.26601 0.14883,0.31677 0.14883,0.49609 0,0.27951 -0.0953,0.43288 -0.20671,0.53744 -0.11138,0.10456 -0.25712,0.14883 -0.32246,0.14883 -0.10142,0 -0.26163,-0.0667 -0.38034,-0.26459 a 0.26460979,0.26460979 0 0 0 -0.0165,-0.0248 l -2.96004,-4.06799 c -0.002,-0.002 0.001,-0.006 0,-0.008 -0.23045,-0.32519 -0.34727,-0.68773 -0.34727,-1.08315 v -2.48874 c 0,-1.01986 0.83224,-1.8521 1.85209,-1.8521 z"
       overflow="visible"
       enable-background="accumulate"
       font-family="'Bitstream Vera Sans'"
       id="path1921" />
    <text
       id="text1925"
       y="160.33919"
       x="115.34406"
       style="font-size:7.05556px;line-height:1.25;font-family:Aachen-Bold;-inkscape-font-specification:Aachen-Bold;letter-spacing:0px;stroke-width:0.264583"
       xml:space="preserve"><tspan
         style="font-style:normal;font-variant:normal;font-weight:normal;font-stretch:normal;font-family:'Abyssinica SIL';-inkscape-font-specification:'Abyssinica SIL';stroke-width:0.264583"
         y="160.33919"
         x="115.34406"
         id="tspan1923"
         sodipodi:role="line">Upvote</tspan></text>
    <text
       xml:space="preserve"
       style="font-size:7.05556px;line-height:1.25;font-family:Aachen-Bold;-inkscape-font-specification:Aachen-Bold;letter-spacing:0px;stroke-width:0.264583"
       x="172.49344"
       y="160.33919"
       id="text1929"><tspan
         sodipodi:role="line"
         id="tspan1927"
         x="172.49344"
         y="160.33919"
         style="font-style:normal;font-variant:normal;font-weight:normal;font-stretch:normal;font-family:'Abyssinica SIL';-inkscape-font-specification:'Abyssinica SIL';stroke-width:0.264583">Downvote</tspan></text>
    <rect
       style="fill:#ffd5d5;stroke:#faebd7;stroke-width:0.529;stroke-linecap:round;stroke-linejoin:bevel"
       id="rect1931"
       width="203.52167"
       height="27.919027"
       x="3.2391663"
       y="138.20215"
       ry="6.2079501" />
    <text
       xml:space="preserve"
       style="font-size:7.05556px;line-height:1.25;font-family:'Airmole Stripe';-inkscape-font-specification:'Airmole Stripe';letter-spacing:0px;stroke-width:0.264583"
       x="17.777571"
       y="151.37929"
       id="text1935"><tspan
         sodipodi:role="line"
         id="tspan1933"
         x="17.777571"
         y="151.37929"
         style="font-style:normal;font-variant:normal;font-weight:normal;font-stretch:normal;font-family:aakar;-inkscape-font-specification:aakar;stroke-width:0.264583">Antoinette Bush</tspan></text>
    <text
       xml:space="preserve"
       style="font-size:7.50041px;line-height:1.25;font-family:'Airmole Stripe';-inkscape-font-specification:'Airmole Stripe';letter-spacing:0px;stroke-width:0.281265"
       x="48.275471"
       y="155.40207"
       id="text1939"
       transform="scale(0.94069041,1.063049)"><tspan
         sodipodi:role="line"
         id="tspan1937"
         x="48.275471"
         y="155.40207"
         style="font-style:normal;font-variant:normal;font-weight:normal;font-stretch:normal;font-family:aakar;-inkscape-font-specification:aakar;stroke-width:0.281265">Profile Link</tspan></text>
    <path
       id="path1941"
       font-family="'Bitstream Vera Sans'"
       enable-background="accumulate"
       overflow="visible"
       d="m 193.07662,151.34058 c -0.31142,0 -0.61078,0.19256 -0.81029,0.50436 -0.007,0.0105 -0.0183,0.014 -0.0248,0.0248 l -2.95176,4.05145 c -0.29575,0.41406 -0.44648,0.89567 -0.44648,1.39735 v 2.48874 c 0,1.3085 1.07276,2.38127 2.38125,2.38127 h 5.02708 c 0.40129,0 0.7328,-0.16225 0.95912,-0.38035 0.22631,-0.21808 0.3638,-0.48693 0.3638,-0.76067 0,-0.22596 -0.0527,-0.41238 -0.10749,-0.55397 0.25768,-0.13854 0.63666,-0.40104 0.63666,-1.00047 0,-0.3775 -0.18273,-0.62379 -0.36381,-0.78549 0.18074,-0.1774 0.36381,-0.43893 0.36381,-0.83509 0,-0.59359 -0.37611,-0.83606 -0.59532,-0.95085 0.0231,-0.1363 0.0661,-0.33706 0.0661,-0.57879 0,-0.51823 -0.48838,-1.00481 -1.20716,-1.00872 -0.002,-6e-5 -0.006,6e-5 -0.008,0 -0.82119,-0.0238 -2.80619,-0.0246 -3.29902,-0.0248 0.088,-0.19697 0.15168,-0.33446 0.31419,-0.70281 0.2472,-0.56032 0.50609,-1.1472 0.58704,-1.37254 4.3e-4,-0.001 -3.9e-4,-0.007 0,-0.008 0.0716,-0.18903 0.17364,-0.3762 0.17364,-0.66972 0,-0.40841 -0.15934,-0.72635 -0.37207,-0.92606 -0.21274,-0.19971 -0.46057,-0.28938 -0.68627,-0.28938 z m 0,0.52916 c 0.0653,0 0.21108,0.0443 0.32245,0.14883 0.11138,0.10456 0.20671,0.25793 0.20671,0.53744 0,0.17932 -0.0535,0.25579 -0.14056,0.48782 a 0.26460979,0.26460979 0 0 0 0,0.008 c -0.0527,0.14762 -0.32287,0.77816 -0.5705,1.33946 -0.24764,0.56131 -0.47956,1.07488 -0.47956,1.07488 a 0.26460979,0.26460979 0 0 0 0.23978,0.37207 c 0,0 2.81246,-0.001 3.69589,0.0248 a 0.26460979,0.26460979 0 0 0 0.008,0 c 0.49351,0 0.68627,0.31198 0.68627,0.47955 0,0.21167 -0.0744,0.66974 -0.0744,0.66974 a 0.26460979,0.26460979 0 0 0 0.17363,0.28939 c 0,0 0.42995,0.13835 0.42995,0.57051 0,0.38763 -0.38861,0.62011 -0.38861,0.62011 a 0.26460979,0.26460979 0 0 0 0.0248,0.47957 c 0,0 0.3638,0.13326 0.3638,0.5209 0,0.43656 -0.5457,0.64492 -0.5457,0.64492 a 0.26460979,0.26460979 0 0 0 -0.12403,0.40515 c 0,0 0.14056,0.18981 0.14056,0.50437 0,0.0702 -0.061,0.24785 -0.19843,0.38034 -0.13749,0.13248 -0.33514,0.23151 -0.59532,0.23151 h -5.02708 c -1.01984,0 -1.85208,-0.83224 -1.85208,-1.8521 v -2.48874 c 0,-0.39541 0.11682,-0.75796 0.34727,-1.08315 0.001,-0.002 -0.001,-0.006 0,-0.008 l 2.96002,-4.06799 a 0.26460979,0.26460979 0 0 0 0.0165,-0.0248 c 0.11872,-0.19786 0.27892,-0.26459 0.38034,-0.26459 z"
       style="line-height:normal;-inkscape-font-specification:'Bitstream Vera Sans';text-indent:0;text-align:start;text-transform:none;fill:#00ffcc;stroke-width:0.264583" />
    <text
       xml:space="preserve"
       style="font-size:7.05556px;line-height:1.25;font-family:Aachen-Bold;-inkscape-font-specification:Aachen-Bold;letter-spacing:0px;stroke-width:0.264583"
       x="157.67697"
       y="160.33919"
       id="text1945"><tspan
         sodipodi:role="line"
         id="tspan1943"
         x="157.67697"
         y="160.33919"
         style="font-style:normal;font-variant:normal;font-weight:normal;font-stretch:normal;font-family:'Abyssinica SIL';-inkscape-font-specification:'Abyssinica SIL';stroke-width:0.264583">Approve</tspan></text>
    <text
       xml:space="preserve"
       style="font-size:7.05556px;line-height:1.25;font-family:Aachen-Bold;-inkscape-font-specification:Aachen-Bold;letter-spacing:0px;stroke-width:0.264583"
       x="193.07661"
       y="147.63582"
       id="text1949"><tspan
         sodipodi:role="line"
         id="tspan1947"
         x="193.07661"
         y="147.63582"
         style="font-style:normal;font-variant:normal;font-weight:normal;font-stretch:normal;font-family:'Acanthus Black SSi';-inkscape-font-specification:'Acanthus Black SSi';stroke-width:0.264583">40</tspan></text>
    <text
       xml:space="preserve"
       style="font-size:7.05556px;line-height:1.25;font-family:'Airmole Stripe';-inkscape-font-specification:'Airmole Stripe';letter-spacing:0px;stroke-width:0.264583"
       x="17.777571"
       y="187.8913"
       id="text1953"><tspan
         sodipodi:role="line"
         id="tspan1951"
         x="17.777571"
         y="187.8913"
         style="font-style:normal;font-variant:normal;font-weight:normal;font-stretch:normal;font-family:aakar;-inkscape-font-specification:aakar;stroke-width:0.264583">Sadie Jefferson</tspan></text>
    <text
       xml:space="preserve"
       style="font-size:7.50041px;line-height:1.25;font-family:'Airmole Stripe';-inkscape-font-specification:'Airmole Stripe';letter-spacing:0px;stroke-width:0.281265"
       x="48.275471"
       y="189.7494"
       id="text1957"
       transform="scale(0.94069041,1.063049)"><tspan
         sodipodi:role="line"
         id="tspan1955"
         x="48.275471"
         y="189.7494"
         style="font-style:normal;font-variant:normal;font-weight:normal;font-stretch:normal;font-family:aakar;-inkscape-font-specification:aakar;stroke-width:0.281265">Profile Link</tspan></text>
    <path
       id="path1959"
       font-family="'Bitstream Vera Sans'"
       enable-background="accumulate"
       overflow="visible"
       d="m 145.45132,187.85331 c -0.31142,0 -0.61078,0.19256 -0.81029,0.50436 -0.007,0.0105 -0.0183,0.014 -0.0248,0.0248 l -2.95176,4.05145 c -0.29575,0.41406 -0.44648,0.89567 -0.44648,1.39735 v 2.48874 c 0,1.3085 1.07276,2.38127 2.38125,2.38127 h 5.02708 c 0.40129,0 0.7328,-0.16225 0.95912,-0.38035 0.22631,-0.21808 0.3638,-0.48693 0.3638,-0.76067 0,-0.22596 -0.0527,-0.41238 -0.10749,-0.55397 0.25768,-0.13854 0.63666,-0.40104 0.63666,-1.00047 0,-0.3775 -0.18273,-0.62379 -0.36381,-0.78549 0.18074,-0.1774 0.36381,-0.43893 0.36381,-0.83509 0,-0.59359 -0.37611,-0.83606 -0.59532,-0.95085 0.0231,-0.1363 0.0661,-0.33706 0.0661,-0.57879 0,-0.51823 -0.48838,-1.00481 -1.20716,-1.00872 -0.002,-6e-5 -0.006,6e-5 -0.008,0 -0.82119,-0.0238 -2.80619,-0.0246 -3.29902,-0.0248 0.088,-0.19697 0.15168,-0.33446 0.31419,-0.70281 0.2472,-0.56032 0.50609,-1.1472 0.58704,-1.37254 4.3e-4,-0.001 -3.9e-4,-0.007 0,-0.008 0.0716,-0.18903 0.17364,-0.3762 0.17364,-0.66972 0,-0.40841 -0.15934,-0.72635 -0.37207,-0.92606 -0.21274,-0.19971 -0.46057,-0.28938 -0.68627,-0.28938 z m 0,0.52916 c 0.0653,0 0.21108,0.0443 0.32245,0.14883 0.11138,0.10456 0.20671,0.25793 0.20671,0.53744 0,0.17932 -0.0535,0.25579 -0.14056,0.48782 a 0.26460979,0.26460979 0 0 0 0,0.008 c -0.0527,0.14762 -0.32287,0.77816 -0.5705,1.33946 -0.24764,0.56131 -0.47956,1.07488 -0.47956,1.07488 a 0.26460979,0.26460979 0 0 0 0.23978,0.37207 c 0,0 2.81246,-10e-4 3.69589,0.0248 a 0.26460979,0.26460979 0 0 0 0.008,0 c 0.49351,0 0.68627,0.31198 0.68627,0.47955 0,0.21167 -0.0744,0.66974 -0.0744,0.66974 a 0.26460979,0.26460979 0 0 0 0.17363,0.28939 c 0,0 0.42995,0.13835 0.42995,0.57051 0,0.38763 -0.38861,0.62011 -0.38861,0.62011 a 0.26460979,0.26460979 0 0 0 0.0248,0.47957 c 0,0 0.3638,0.13326 0.3638,0.5209 0,0.43656 -0.5457,0.64492 -0.5457,0.64492 a 0.26460979,0.26460979 0 0 0 -0.12403,0.40515 c 0,0 0.14056,0.18981 0.14056,0.50437 0,0.0702 -0.061,0.24785 -0.19843,0.38034 -0.13749,0.13248 -0.33514,0.23151 -0.59532,0.23151 h -5.02708 c -1.01984,0 -1.85208,-0.83224 -1.85208,-1.8521 v -2.48874 c 0,-0.39541 0.11682,-0.75796 0.34727,-1.08315 0.001,-0.002 -10e-4,-0.006 0,-0.008 l 2.96002,-4.06799 a 0.26460979,0.26460979 0 0 0 0.0165,-0.0248 c 0.11872,-0.19786 0.27892,-0.26459 0.38034,-0.26459 z"
       style="line-height:normal;-inkscape-font-specification:'Bitstream Vera Sans';text-indent:0;text-align:start;text-transform:none;fill:#00ffcc;stroke-width:0.264583" />
    <path
       id="path1961"
       font-family="'Bitstream Vera Sans'"
       enable-background="accumulate"
       overflow="visible"
       d="m 163.21978,189.10736 c -1.3085,0 -2.38127,1.07276 -2.38127,2.38126 v 2.48874 c 0,0.50169 0.15073,0.98329 0.44649,1.39735 l 2.95177,4.05145 c 0.007,0.0108 0.0181,0.0143 0.0248,0.0248 0.19951,0.31181 0.49888,0.50437 0.8103,0.50437 0.22569,0 0.47352,-0.0897 0.68626,-0.28939 0.21273,-0.19972 0.37207,-0.51764 0.37207,-0.92605 0,-0.29692 -0.10356,-0.45949 -0.17363,-0.66973 -0.0796,-0.22279 -0.33859,-0.81762 -0.58705,-1.3808 -0.16251,-0.36835 -0.22614,-0.50583 -0.31419,-0.7028 0.49283,-2.2e-4 2.47783,-9.7e-4 3.29902,-0.0248 0.003,0 0.005,2e-5 0.008,0 0.71878,-0.004 1.20716,-0.4905 1.20716,-1.00873 0,-0.24173 -0.0431,-0.44248 -0.0661,-0.57878 0.21921,-0.11479 0.59532,-0.35727 0.59532,-0.95086 0,-0.39616 -0.18308,-0.65769 -0.36381,-0.8351 0.18108,-0.16169 0.36381,-0.40798 0.36381,-0.78548 0,-0.59943 -0.37898,-0.86192 -0.63666,-1.00046 0.0548,-0.14159 0.10749,-0.32802 0.10749,-0.55398 0,-0.27374 -0.13749,-0.54259 -0.3638,-0.76067 -0.22632,-0.21809 -0.55783,-0.38034 -0.95912,-0.38034 z m 0,0.52916 h 5.02709 c 0.26018,0 0.45783,0.099 0.59532,0.23151 0.13748,0.13249 0.19843,0.31013 0.19843,0.38034 0,0.31457 -0.14056,0.50438 -0.14056,0.50438 a 0.26460979,0.26460979 0 0 0 0.12403,0.40514 c 0,0 0.5457,0.20836 0.5457,0.64492 0,0.38764 -0.3638,0.5209 -0.3638,0.5209 a 0.26460979,0.26460979 0 0 0 -0.0248,0.47957 c 0,0 0.38861,0.23248 0.38861,0.62011 0,0.43216 -0.42995,0.57051 -0.42995,0.57051 a 0.26460979,0.26460979 0 0 0 -0.17363,0.2894 c 0,0 0.0744,0.45806 0.0744,0.66973 0,0.16756 -0.19276,0.47955 -0.68627,0.47955 a 0.26460979,0.26460979 0 0 0 -0.008,0 c -0.88343,0.026 -3.6959,0.0248 -3.6959,0.0248 a 0.26460979,0.26460979 0 0 0 -0.23978,0.37208 c 0,0 0.23192,0.51356 0.47956,1.07487 0.24763,0.5613 0.51779,1.19183 0.57051,1.33946 h -0.008 c 0.0887,0.26601 0.14883,0.31677 0.14883,0.49609 0,0.27951 -0.0953,0.43288 -0.20671,0.53744 -0.11138,0.10456 -0.25712,0.14883 -0.32246,0.14883 -0.10142,0 -0.26163,-0.0667 -0.38034,-0.26459 a 0.26460979,0.26460979 0 0 0 -0.0165,-0.0248 l -2.96004,-4.06799 c -0.002,-0.002 0.001,-0.006 0,-0.008 -0.23045,-0.32519 -0.34727,-0.68773 -0.34727,-1.08315 v -2.48874 c 0,-1.01986 0.83224,-1.8521 1.85209,-1.8521 z"
       style="line-height:normal;-inkscape-font-specification:'Bitstream Vera Sans';text-indent:0;text-align:start;text-transform:none;fill:#00ffcc;stroke-width:0.264583" />
    <text
       xml:space="preserve"
       style="font-size:7.05556px;line-height:1.25;font-family:Aachen-Bold;-inkscape-font-specification:Aachen-Bold;letter-spacing:0px;stroke-width:0.264583"
       x="115.34406"
       y="196.8512"
       id="text1965"><tspan
         sodipodi:role="line"
         id="tspan1963"
         x="115.34406"
         y="196.8512"
         style="font-style:normal;font-variant:normal;font-weight:normal;font-stretch:normal;font-family:'Abyssinica SIL';-inkscape-font-specification:'Abyssinica SIL';stroke-width:0.264583">Upvote</tspan></text>
    <text
       id="text1969"
       y="196.8512"
       x="172.49344"
       style="font-size:7.05556px;line-height:1.25;font-family:Aachen-Bold;-inkscape-font-specification:Aachen-Bold;letter-spacing:0px;stroke-width:0.264583"
       xml:space="preserve"><tspan
         style="font-style:normal;font-variant:normal;font-weight:normal;font-stretch:normal;font-family:'Abyssinica SIL';-inkscape-font-specification:'Abyssinica SIL';stroke-width:0.264583"
         y="196.8512"
         x="172.49344"
         id="tspan1967"
         sodipodi:role="line">Downvote</tspan></text>
    <rect
       ry="6.2079501"
       y="174.71416"
       x="3.2391663"
       height="27.919027"
       width="203.52167"
       id="rect1971"
       style="fill:#ffd5d5;stroke:#faebd7;stroke-width:0.529;stroke-linecap:round;stroke-linejoin:bevel" />
    <text
       id="text1975"
       y="187.8913"
       x="17.777571"
       style="font-size:7.05556px;line-height:1.25;font-family:'Airmole Stripe';-inkscape-font-specification:'Airmole Stripe';letter-spacing:0px;stroke-width:0.264583"
       xml:space="preserve"><tspan
         style="font-style:normal;font-variant:normal;font-weight:normal;font-stretch:normal;font-family:aakar;-inkscape-font-specification:aakar;stroke-width:0.264583"
         y="187.8913"
         x="17.777571"
         id="tspan1973"
         sodipodi:role="line">Eleanor Rodgers</tspan></text>
    <text
       transform="scale(0.94069041,1.063049)"
       id="text1979"
       y="189.7494"
       x="48.275471"
       style="font-size:7.50041px;line-height:1.25;font-family:'Airmole Stripe';-inkscape-font-specification:'Airmole Stripe';letter-spacing:0px;stroke-width:0.281265"
       xml:space="preserve"><tspan
         style="font-style:normal;font-variant:normal;font-weight:normal;font-stretch:normal;font-family:aakar;-inkscape-font-specification:aakar;stroke-width:0.281265"
         y="189.7494"
         x="48.275471"
         id="tspan1977"
         sodipodi:role="line">Profile Link</tspan></text>
    <path
       style="line-height:normal;-inkscape-font-specification:'Bitstream Vera Sans';text-indent:0;text-align:start;text-transform:none;fill:#00ffcc;stroke-width:0.264583"
       d="m 193.07662,187.85331 c -0.31142,0 -0.61078,0.19256 -0.81029,0.50436 -0.007,0.0105 -0.0183,0.014 -0.0248,0.0248 l -2.95176,4.05145 c -0.29575,0.41406 -0.44648,0.89567 -0.44648,1.39735 v 2.48874 c 0,1.3085 1.07276,2.38127 2.38125,2.38127 h 5.02708 c 0.40129,0 0.7328,-0.16225 0.95912,-0.38035 0.22631,-0.21808 0.3638,-0.48693 0.3638,-0.76067 0,-0.22596 -0.0527,-0.41238 -0.10749,-0.55397 0.25768,-0.13854 0.63666,-0.40104 0.63666,-1.00047 0,-0.3775 -0.18273,-0.62379 -0.36381,-0.78549 0.18074,-0.1774 0.36381,-0.43893 0.36381,-0.83509 0,-0.59359 -0.37611,-0.83606 -0.59532,-0.95085 0.0231,-0.1363 0.0661,-0.33706 0.0661,-0.57879 0,-0.51823 -0.48838,-1.00481 -1.20716,-1.00872 -0.002,-6e-5 -0.006,6e-5 -0.008,0 -0.82119,-0.0238 -2.80619,-0.0246 -3.29902,-0.0248 0.088,-0.19697 0.15168,-0.33446 0.31419,-0.70281 0.2472,-0.56032 0.50609,-1.1472 0.58704,-1.37254 4.3e-4,-0.001 -3.9e-4,-0.007 0,-0.008 0.0716,-0.18903 0.17364,-0.3762 0.17364,-0.66972 0,-0.40841 -0.15934,-0.72635 -0.37207,-0.92606 -0.21274,-0.19971 -0.46057,-0.28938 -0.68627,-0.28938 z m 0,0.52916 c 0.0653,0 0.21108,0.0443 0.32245,0.14883 0.11138,0.10456 0.20671,0.25793 0.20671,0.53744 0,0.17932 -0.0535,0.25579 -0.14056,0.48782 a 0.26460979,0.26460979 0 0 0 0,0.008 c -0.0527,0.14762 -0.32287,0.77816 -0.5705,1.33946 -0.24764,0.56131 -0.47956,1.07488 -0.47956,1.07488 a 0.26460979,0.26460979 0 0 0 0.23978,0.37207 c 0,0 2.81246,-10e-4 3.69589,0.0248 a 0.26460979,0.26460979 0 0 0 0.008,0 c 0.49351,0 0.68627,0.31198 0.68627,0.47955 0,0.21167 -0.0744,0.66974 -0.0744,0.66974 a 0.26460979,0.26460979 0 0 0 0.17363,0.28939 c 0,0 0.42995,0.13835 0.42995,0.57051 0,0.38763 -0.38861,0.62011 -0.38861,0.62011 a 0.26460979,0.26460979 0 0 0 0.0248,0.47957 c 0,0 0.3638,0.13326 0.3638,0.5209 0,0.43656 -0.5457,0.64492 -0.5457,0.64492 a 0.26460979,0.26460979 0 0 0 -0.12403,0.40515 c 0,0 0.14056,0.18981 0.14056,0.50437 0,0.0702 -0.061,0.24785 -0.19843,0.38034 -0.13749,0.13248 -0.33514,0.23151 -0.59532,0.23151 h -5.02708 c -1.01984,0 -1.85208,-0.83224 -1.85208,-1.8521 v -2.48874 c 0,-0.39541 0.11682,-0.75796 0.34727,-1.08315 0.001,-0.002 -0.001,-0.006 0,-0.008 l 2.96002,-4.06799 a 0.26460979,0.26460979 0 0 0 0.0165,-0.0248 c 0.11872,-0.19786 0.27892,-0.26459 0.38034,-0.26459 z"
       overflow="visible"
       enable-background="accumulate"
       font-family="'Bitstream Vera Sans'"
       id="path1981" />
    <text
       id="text1985"
       y="196.8512"
       x="157.67697"
       style="font-size:7.05556px;line-height:1.25;font-family:Aachen-Bold;-inkscape-font-specification:Aachen-Bold;letter-spacing:0px;stroke-width:0.264583"
       xml:space="preserve"><tspan
         style="font-style:normal;font-variant:normal;font-weight:normal;font-stretch:normal;font-family:'Abyssinica SIL';-inkscape-font-specification:'Abyssinica SIL';stroke-width:0.264583"
         y="196.8512"
         x="157.67697"
         id="tspan1983"
         sodipodi:role="line">Approve</tspan></text>
    <text
       id="text1989"
       y="184.14783"
       x="193.07661"
       style="font-size:7.05556px;line-height:1.25;font-family:Aachen-Bold;-inkscape-font-specification:Aachen-Bold;letter-spacing:0px;stroke-width:0.264583"
       xml:space="preserve"><tspan
         style="font-style:normal;font-variant:normal;font-weight:normal;font-stretch:normal;font-family:'Acanthus Black SSi';-inkscape-font-specification:'Acanthus Black SSi';stroke-width:0.264583"
         y="184.14783"
         x="193.07661"
         id="tspan1987"
         sodipodi:role="line">39</tspan></text>
    <text
       id="text1993"
       y="220.17003"
       x="17.777571"
       style="font-size:7.05556px;line-height:1.25;font-family:'Airmole Stripe';-inkscape-font-specification:'Airmole Stripe';letter-spacing:0px;stroke-width:0.264583"
       xml:space="preserve"><tspan
         style="font-style:normal;font-variant:normal;font-weight:normal;font-stretch:normal;font-family:aakar;-inkscape-font-specification:aakar;stroke-width:0.264583"
         y="220.17003"
         x="17.777571"
         id="tspan1991"
         sodipodi:role="line">Sadie Jefferson</tspan></text>
    <text
       transform="scale(0.94069041,1.063049)"
       id="text1997"
       y="220.11444"
       x="48.275471"
       style="font-size:7.50041px;line-height:1.25;font-family:'Airmole Stripe';-inkscape-font-specification:'Airmole Stripe';letter-spacing:0px;stroke-width:0.281265"
       xml:space="preserve"><tspan
         style="font-style:normal;font-variant:normal;font-weight:normal;font-stretch:normal;font-family:aakar;-inkscape-font-specification:aakar;stroke-width:0.281265"
         y="220.11444"
         x="48.275471"
         id="tspan1995"
         sodipodi:role="line">Profile Link</tspan></text>
    <path
       style="line-height:normal;-inkscape-font-specification:'Bitstream Vera Sans';text-indent:0;text-align:start;text-transform:none;fill:#00ffcc;stroke-width:0.264583"
       d="m 145.45132,220.13268 c -0.31142,0 -0.61078,0.19256 -0.81029,0.50436 -0.007,0.0105 -0.0183,0.014 -0.0248,0.0248 l -2.95176,4.05145 c -0.29575,0.41406 -0.44648,0.89567 -0.44648,1.39735 v 2.48874 c 0,1.3085 1.07276,2.38127 2.38125,2.38127 h 5.02708 c 0.40129,0 0.7328,-0.16225 0.95912,-0.38035 0.22631,-0.21808 0.3638,-0.48693 0.3638,-0.76067 0,-0.22596 -0.0527,-0.41238 -0.10749,-0.55397 0.25768,-0.13854 0.63666,-0.40104 0.63666,-1.00047 0,-0.3775 -0.18273,-0.62379 -0.36381,-0.78549 0.18074,-0.1774 0.36381,-0.43893 0.36381,-0.83509 0,-0.59359 -0.37611,-0.83606 -0.59532,-0.95085 0.0231,-0.1363 0.0661,-0.33706 0.0661,-0.57879 0,-0.51823 -0.48838,-1.00481 -1.20716,-1.00872 -0.002,-6e-5 -0.006,6e-5 -0.008,0 -0.82119,-0.0238 -2.80619,-0.0246 -3.29902,-0.0248 0.088,-0.19697 0.15168,-0.33446 0.31419,-0.70281 0.2472,-0.56032 0.50609,-1.1472 0.58704,-1.37254 4.3e-4,-0.001 -3.9e-4,-0.007 0,-0.008 0.0716,-0.18903 0.17364,-0.3762 0.17364,-0.66972 0,-0.40841 -0.15934,-0.72635 -0.37207,-0.92606 -0.21274,-0.19971 -0.46057,-0.28938 -0.68627,-0.28938 z m 0,0.52916 c 0.0653,0 0.21108,0.0443 0.32245,0.14883 0.11138,0.10456 0.20671,0.25793 0.20671,0.53744 0,0.17932 -0.0535,0.25579 -0.14056,0.48782 a 0.26460979,0.26460979 0 0 0 0,0.008 c -0.0527,0.14762 -0.32287,0.77816 -0.5705,1.33946 -0.24764,0.56131 -0.47956,1.07488 -0.47956,1.07488 a 0.26460979,0.26460979 0 0 0 0.23978,0.37207 c 0,0 2.81246,-10e-4 3.69589,0.0248 a 0.26460979,0.26460979 0 0 0 0.008,0 c 0.49351,0 0.68627,0.31198 0.68627,0.47955 0,0.21167 -0.0744,0.66974 -0.0744,0.66974 a 0.26460979,0.26460979 0 0 0 0.17363,0.28939 c 0,0 0.42995,0.13835 0.42995,0.57051 0,0.38763 -0.38861,0.62011 -0.38861,0.62011 a 0.26460979,0.26460979 0 0 0 0.0248,0.47957 c 0,0 0.3638,0.13326 0.3638,0.5209 0,0.43656 -0.5457,0.64492 -0.5457,0.64492 a 0.26460979,0.26460979 0 0 0 -0.12403,0.40515 c 0,0 0.14056,0.18981 0.14056,0.50437 0,0.0702 -0.061,0.24785 -0.19843,0.38034 -0.13749,0.13248 -0.33514,0.23151 -0.59532,0.23151 h -5.02708 c -1.01984,0 -1.85208,-0.83224 -1.85208,-1.8521 v -2.48874 c 0,-0.39541 0.11682,-0.75796 0.34727,-1.08315 0.001,-0.002 -10e-4,-0.006 0,-0.008 l 2.96002,-4.06799 a 0.26460979,0.26460979 0 0 0 0.0165,-0.0248 c 0.11872,-0.19786 0.27892,-0.26459 0.38034,-0.26459 z"
       overflow="visible"
       enable-background="accumulate"
       font-family="'Bitstream Vera Sans'"
       id="path1999" />
    <path
       style="line-height:normal;-inkscape-font-specification:'Bitstream Vera Sans';text-indent:0;text-align:start;text-transform:none;fill:#00ffcc;stroke-width:0.264583"
       d="m 163.21978,221.38673 c -1.3085,0 -2.38127,1.07276 -2.38127,2.38126 v 2.48874 c 0,0.50169 0.15073,0.98329 0.44649,1.39735 l 2.95177,4.05145 c 0.007,0.0108 0.0181,0.0143 0.0248,0.0248 0.19951,0.31181 0.49888,0.50437 0.8103,0.50437 0.22569,0 0.47352,-0.0897 0.68626,-0.28939 0.21273,-0.19972 0.37207,-0.51764 0.37207,-0.92605 0,-0.29692 -0.10356,-0.45949 -0.17363,-0.66973 -0.0796,-0.22279 -0.33859,-0.81762 -0.58705,-1.3808 -0.16251,-0.36835 -0.22614,-0.50583 -0.31419,-0.7028 0.49283,-2.2e-4 2.47783,-9.7e-4 3.29902,-0.0248 0.003,0 0.005,2e-5 0.008,0 0.71878,-0.004 1.20716,-0.4905 1.20716,-1.00873 0,-0.24173 -0.0431,-0.44248 -0.0661,-0.57878 0.21921,-0.11479 0.59532,-0.35727 0.59532,-0.95086 0,-0.39616 -0.18308,-0.65769 -0.36381,-0.8351 0.18108,-0.16169 0.36381,-0.40798 0.36381,-0.78548 0,-0.59943 -0.37898,-0.86192 -0.63666,-1.00046 0.0548,-0.14159 0.10749,-0.32802 0.10749,-0.55398 0,-0.27374 -0.13749,-0.54259 -0.3638,-0.76067 -0.22632,-0.21809 -0.55783,-0.38034 -0.95912,-0.38034 z m 0,0.52916 h 5.02709 c 0.26018,0 0.45783,0.099 0.59532,0.23151 0.13748,0.13249 0.19843,0.31013 0.19843,0.38034 0,0.31457 -0.14056,0.50438 -0.14056,0.50438 a 0.26460979,0.26460979 0 0 0 0.12403,0.40514 c 0,0 0.5457,0.20836 0.5457,0.64492 0,0.38764 -0.3638,0.5209 -0.3638,0.5209 a 0.26460979,0.26460979 0 0 0 -0.0248,0.47957 c 0,0 0.38861,0.23248 0.38861,0.62011 0,0.43216 -0.42995,0.57051 -0.42995,0.57051 a 0.26460979,0.26460979 0 0 0 -0.17363,0.2894 c 0,0 0.0744,0.45806 0.0744,0.66973 0,0.16756 -0.19276,0.47955 -0.68627,0.47955 a 0.26460979,0.26460979 0 0 0 -0.008,0 c -0.88343,0.026 -3.6959,0.0248 -3.6959,0.0248 a 0.26460979,0.26460979 0 0 0 -0.23978,0.37208 c 0,0 0.23192,0.51356 0.47956,1.07487 0.24763,0.5613 0.51779,1.19183 0.57051,1.33946 h -0.008 c 0.0887,0.26601 0.14883,0.31677 0.14883,0.49609 0,0.27951 -0.0953,0.43288 -0.20671,0.53744 -0.11138,0.10456 -0.25712,0.14883 -0.32246,0.14883 -0.10142,0 -0.26163,-0.0667 -0.38034,-0.26459 a 0.26460979,0.26460979 0 0 0 -0.0165,-0.0248 l -2.96004,-4.06799 c -0.002,-0.002 0.001,-0.006 0,-0.008 -0.23045,-0.32519 -0.34727,-0.68773 -0.34727,-1.08315 v -2.48874 c 0,-1.01986 0.83224,-1.8521 1.85209,-1.8521 z"
       overflow="visible"
       enable-background="accumulate"
       font-family="'Bitstream Vera Sans'"
       id="path2001" />
    <text
       id="text2005"
       y="229.12993"
       x="115.34406"
       style="font-size:7.05556px;line-height:1.25;font-family:Aachen-Bold;-inkscape-font-specification:Aachen-Bold;letter-spacing:0px;stroke-width:0.264583"
       xml:space="preserve"><tspan
         style="font-style:normal;font-variant:normal;font-weight:normal;font-stretch:normal;font-family:'Abyssinica SIL';-inkscape-font-specification:'Abyssinica SIL';stroke-width:0.264583"
         y="229.12993"
         x="115.34406"
         id="tspan2003"
         sodipodi:role="line">Upvote</tspan></text>
    <text
       xml:space="preserve"
       style="font-size:7.05556px;line-height:1.25;font-family:Aachen-Bold;-inkscape-font-specification:Aachen-Bold;letter-spacing:0px;stroke-width:0.264583"
       x="172.49344"
       y="229.12993"
       id="text2009"><tspan
         sodipodi:role="line"
         id="tspan2007"
         x="172.49344"
         y="229.12993"
         style="font-style:normal;font-variant:normal;font-weight:normal;font-stretch:normal;font-family:'Abyssinica SIL';-inkscape-font-specification:'Abyssinica SIL';stroke-width:0.264583">Downvote</tspan></text>
    <rect
       style="fill:#ffd5d5;stroke:#faebd7;stroke-width:0.529;stroke-linecap:round;stroke-linejoin:bevel"
       id="rect2011"
       width="203.52167"
       height="27.919027"
       x="3.2391663"
       y="206.99289"
       ry="6.2079501" />
    <text
       xml:space="preserve"
       style="font-size:7.05556px;line-height:1.25;font-family:'Airmole Stripe';-inkscape-font-specification:'Airmole Stripe';letter-spacing:0px;stroke-width:0.264583"
       x="17.777571"
       y="220.17003"
       id="text2015"><tspan
         sodipodi:role="line"
         id="tspan2013"
         x="17.777571"
         y="220.17003"
         style="font-style:normal;font-variant:normal;font-weight:normal;font-stretch:normal;font-family:aakar;-inkscape-font-specification:aakar;stroke-width:0.264583">Pamela Walker</tspan><tspan
         id="tspan2071"
         sodipodi:role="line"
         x="17.777571"
         y="229.40007"
         style="font-style:normal;font-variant:normal;font-weight:normal;font-stretch:normal;font-family:aakar;-inkscape-font-specification:aakar;stroke-width:0.264583" /></text>
    <text
       xml:space="preserve"
       style="font-size:7.50041px;line-height:1.25;font-family:'Airmole Stripe';-inkscape-font-specification:'Airmole Stripe';letter-spacing:0px;stroke-width:0.281265"
       x="48.275471"
       y="220.11444"
       id="text2019"
       transform="scale(0.94069041,1.063049)"><tspan
         sodipodi:role="line"
         id="tspan2017"
         x="48.275471"
         y="220.11444"
         style="font-style:normal;font-variant:normal;font-weight:normal;font-stretch:normal;font-family:aakar;-inkscape-font-specification:aakar;stroke-width:0.281265">Profile Link</tspan></text>
    <path
       id="path2021"
       font-family="'Bitstream Vera Sans'"
       enable-background="accumulate"
       overflow="visible"
       d="m 193.07662,220.13268 c -0.31142,0 -0.61078,0.19256 -0.81029,0.50436 -0.007,0.0105 -0.0183,0.014 -0.0248,0.0248 l -2.95176,4.05145 c -0.29575,0.41406 -0.44648,0.89567 -0.44648,1.39735 v 2.48874 c 0,1.3085 1.07276,2.38127 2.38125,2.38127 h 5.02708 c 0.40129,0 0.7328,-0.16225 0.95912,-0.38035 0.22631,-0.21808 0.3638,-0.48693 0.3638,-0.76067 0,-0.22596 -0.0527,-0.41238 -0.10749,-0.55397 0.25768,-0.13854 0.63666,-0.40104 0.63666,-1.00047 0,-0.3775 -0.18273,-0.62379 -0.36381,-0.78549 0.18074,-0.1774 0.36381,-0.43893 0.36381,-0.83509 0,-0.59359 -0.37611,-0.83606 -0.59532,-0.95085 0.0231,-0.1363 0.0661,-0.33706 0.0661,-0.57879 0,-0.51823 -0.48838,-1.00481 -1.20716,-1.00872 -0.002,-6e-5 -0.006,6e-5 -0.008,0 -0.82119,-0.0238 -2.80619,-0.0246 -3.29902,-0.0248 0.088,-0.19697 0.15168,-0.33446 0.31419,-0.70281 0.2472,-0.56032 0.50609,-1.1472 0.58704,-1.37254 4.3e-4,-0.001 -3.9e-4,-0.007 0,-0.008 0.0716,-0.18903 0.17364,-0.3762 0.17364,-0.66972 0,-0.40841 -0.15934,-0.72635 -0.37207,-0.92606 -0.21274,-0.19971 -0.46057,-0.28938 -0.68627,-0.28938 z m 0,0.52916 c 0.0653,0 0.21108,0.0443 0.32245,0.14883 0.11138,0.10456 0.20671,0.25793 0.20671,0.53744 0,0.17932 -0.0535,0.25579 -0.14056,0.48782 a 0.26460979,0.26460979 0 0 0 0,0.008 c -0.0527,0.14762 -0.32287,0.77816 -0.5705,1.33946 -0.24764,0.56131 -0.47956,1.07488 -0.47956,1.07488 a 0.26460979,0.26460979 0 0 0 0.23978,0.37207 c 0,0 2.81246,-10e-4 3.69589,0.0248 a 0.26460979,0.26460979 0 0 0 0.008,0 c 0.49351,0 0.68627,0.31198 0.68627,0.47955 0,0.21167 -0.0744,0.66974 -0.0744,0.66974 a 0.26460979,0.26460979 0 0 0 0.17363,0.28939 c 0,0 0.42995,0.13835 0.42995,0.57051 0,0.38763 -0.38861,0.62011 -0.38861,0.62011 a 0.26460979,0.26460979 0 0 0 0.0248,0.47957 c 0,0 0.3638,0.13326 0.3638,0.5209 0,0.43656 -0.5457,0.64492 -0.5457,0.64492 a 0.26460979,0.26460979 0 0 0 -0.12403,0.40515 c 0,0 0.14056,0.18981 0.14056,0.50437 0,0.0702 -0.061,0.24785 -0.19843,0.38034 -0.13749,0.13248 -0.33514,0.23151 -0.59532,0.23151 h -5.02708 c -1.01984,0 -1.85208,-0.83224 -1.85208,-1.8521 v -2.48874 c 0,-0.39541 0.11682,-0.75796 0.34727,-1.08315 0.001,-0.002 -0.001,-0.006 0,-0.008 l 2.96002,-4.06799 a 0.26460979,0.26460979 0 0 0 0.0165,-0.0248 c 0.11872,-0.19786 0.27892,-0.26459 0.38034,-0.26459 z"
       style="line-height:normal;-inkscape-font-specification:'Bitstream Vera Sans';text-indent:0;text-align:start;text-transform:none;fill:#00ffcc;stroke-width:0.264583" />
    <text
       xml:space="preserve"
       style="font-size:7.05556px;line-height:1.25;font-family:Aachen-Bold;-inkscape-font-specification:Aachen-Bold;letter-spacing:0px;stroke-width:0.264583"
       x="157.67697"
       y="229.12993"
       id="text2025"><tspan
         sodipodi:role="line"
         id="tspan2023"
         x="157.67697"
         y="229.12993"
         style="font-style:normal;font-variant:normal;font-weight:normal;font-stretch:normal;font-family:'Abyssinica SIL';-inkscape-font-specification:'Abyssinica SIL';stroke-width:0.264583">Approve</tspan></text>
    <text
       xml:space="preserve"
       style="font-size:7.05556px;line-height:1.25;font-family:Aachen-Bold;-inkscape-font-specification:Aachen-Bold;letter-spacing:0px;stroke-width:0.264583"
       x="193.07661"
       y="216.42656"
       id="text2029"><tspan
         sodipodi:role="line"
         id="tspan2027"
         x="193.07661"
         y="216.42656"
         style="font-style:normal;font-variant:normal;font-weight:normal;font-stretch:normal;font-family:'Acanthus Black SSi';-inkscape-font-specification:'Acanthus Black SSi';stroke-width:0.264583">37</tspan></text>
  </g>
</svg>
